<svg version="1.2" xmlns="http://www.w3.org/2000/svg" viewBox="0 0 512 512" width="512" height="512">
	<title>file</title>
	<style>
		.s0 { fill: #000000 } 
	</style>
	<path id="Path 0" class="s0" d="m139 2.6c-4 1.9-8.5 5.6-16.6 13.7-6.1 6.2-12.2 13.2-13.5 15.7-1.9 3.6-2.4 6.1-2.4 12.5 0 5.8 0.5 9.1 1.9 12 1.3 2.7 33.3 35.5 99.5 101.8l97.6 97.7c-173.7 173.8-195.9 196.5-197.4 200q-2.1 4.5-2.1 11c0 4.9 0.7 7.9 2.6 12 1.8 3.9 5.7 8.7 13.7 16.6 7.8 7.8 12.9 12 16.7 13.8 4 1.9 7.1 2.6 11.3 2.6 3.9 0 7.5-0.8 11.5-2.5 5.1-2.3 17-13.9 122.4-119.3 101.3-101.3 117-117.4 119.2-122.2 1.9-4.1 2.6-7.2 2.6-12 0-4.8-0.7-7.9-2.6-12-2.2-4.8-17.9-20.9-119.2-122.2-100.2-100.1-117.5-117-122.2-119.2-4.1-2-7-2.6-11.5-2.6-4.2 0.1-7.7 0.9-11.5 2.6z"/>
</svg>