<?xml version="1.0" encoding="UTF-8" standalone="no"?>
<!-- Vetorizado por Cleberson Carlos (http://clebersonc.blogspot.com) -->

<svg
   xmlns:dc="http://purl.org/dc/elements/1.1/"
   xmlns:cc="http://creativecommons.org/ns#"
   xmlns:rdf="http://www.w3.org/1999/02/22-rdf-syntax-ns#"
   xmlns:svg="http://www.w3.org/2000/svg"
   xmlns="http://www.w3.org/2000/svg"
   xmlns:sodipodi="http://sodipodi.sourceforge.net/DTD/sodipodi-0.dtd"
   xmlns:inkscape="http://www.inkscape.org/namespaces/inkscape"
   width="835.61194"
   height="1292.951"
   viewBox="0 0 668.48958 1034.3609"
   version="1.1"
   id="svg2"
   inkscape:version="0.48.3.1 r9886"
   sodipodi:docname="UESPI.svg">
  <metadata
     id="metadata624">
    <rdf:RDF>
      <cc:Work
         rdf:about="">
        <dc:format>image/svg+xml</dc:format>
        <dc:type
           rdf:resource="http://purl.org/dc/dcmitype/StillImage" />
        <dc:title></dc:title>
      </cc:Work>
    </rdf:RDF>
  </metadata>
  <defs
     id="defs622" />
  <sodipodi:namedview
     pagecolor="#ffffff"
     bordercolor="#666666"
     borderopacity="1"
     objecttolerance="10"
     gridtolerance="10"
     guidetolerance="10"
     inkscape:pageopacity="0"
     inkscape:pageshadow="2"
     inkscape:window-width="1024"
     inkscape:window-height="657"
     id="namedview620"
     showgrid="false"
     inkscape:zoom="0.36041581"
     inkscape:cx="417.80597"
     inkscape:cy="646.47552"
     inkscape:window-x="0"
     inkscape:window-y="25"
     inkscape:window-maximized="1"
     inkscape:current-layer="svg2"
     inkscape:object-paths="true"
     inkscape:snap-object-midpoints="true"
     fit-margin-top="0"
     fit-margin-left="0"
     fit-margin-right="0"
     fit-margin-bottom="0"
     inkscape:snap-nodes="false"
     inkscape:object-nodes="false"
     inkscape:snap-smooth-nodes="false"
     inkscape:snap-intersection-paths="false"
     inkscape:snap-midpoints="false" />
  <g
     id="g4320"
     transform="translate(-180.61846,211.64243)">
    <g
       id="g4215"
       transform="matrix(1,0,0,0.9780109,-155.2,2.4041063)">
      <g
         id="g4217">
        <path
           style="fill:#f0a513;stroke:#000000;stroke-width:3.47457266px;stroke-linecap:butt;stroke-linejoin:miter;stroke-opacity:1"
           d="M 479.67471,1.7372863 499.69624,789.14667 c 17.8675,1.6661 35.28761,1.5011 54.33159,0 L 575.92556,2.3964963 z"
           id="path4219"
           inkscape:connector-curvature="0"
           sodipodi:nodetypes="ccccc" />
        <path
           style="fill:#000000;stroke:none"
           d="m 534.33314,22.96448 c -0.0457,-4.87502 -12.21071,-17.25353 -13.5776,-0.44298 l 5.2915,792.93127 -3.69573,-0.018 L 515.977,23.66393 C 516.28724,7.1543 534.51165,5.71458 534.33301,22.95625 z"
           id="path4221"
           inkscape:connector-curvature="0"
           sodipodi:nodetypes="cccccc" />
        <path
           sodipodi:nodetypes="cccccc"
           inkscape:connector-curvature="0"
           id="path4223"
           d="M 504.78588,22.99228 C 504.64421,18.11746 492.23174,5.72823 491.19857,22.53646 l 21.03428,792.89421 -3.69615,0 L 486.44248,23.6958 C 486.42368,7.18734 504.6221,5.76467 504.7858,23.00524 z"
           style="fill:#000000;stroke:none" />
        <path
           style="fill:#000000;stroke:none"
           d="m 565.30358,23.49935 c 0.0479,-4.87664 -11.87355,-17.73902 -13.55933,-0.98365 l -9.80341,793.11257 -3.69335,-0.1437 8.69921,-791.99529 c 0.62294,-16.49671 18.86291,-17.21089 18.3563,0.023 z"
           id="path4225"
           inkscape:connector-curvature="0"
           sodipodi:nodetypes="cccccc" />
      </g>
      <g
         style="fill:#f0a513;stroke:#000000;stroke-width:3.53930497;stroke-miterlimit:4;stroke-dasharray:none"
         id="g4227"
         transform="matrix(0.99707962,0,0,0.96514741,409.96407,-617.49644)">
        <path
           style="fill:#f0a513;stroke:#000000;stroke-width:3.53930497;stroke-linecap:butt;stroke-linejoin:miter;stroke-miterlimit:4;stroke-opacity:1;stroke-dasharray:none"
           d="m 116.88604,1464.9574 c -1.93542,23.4793 -11.97907,13.8346 -12.02512,25.5877 -0.34765,12.2975 4.77752,16.9602 12.02512,16.4383 7.24761,0.5214 12.37283,-4.1407 12.02516,-16.4383 -0.0428,-11.7532 -10.08974,-2.1084 -12.02516,-25.5877 z"
           id="path4229"
           inkscape:connector-curvature="0" />
        <path
           style="fill:#f0a513;stroke:#000000;stroke-width:3.53930497;stroke-linecap:butt;stroke-linejoin:miter;stroke-miterlimit:4;stroke-opacity:1;stroke-dasharray:none"
           d="m 117.34675,1416.8856 c -0.0563,-0.033 -12.87769,14.0896 -12.48262,26.2803 -1.365,-13.8412 -27.737165,-34.5879 -30.816027,-9.5912 12.60484,-4.9615 5.40402,10.8523 7.003642,22.8558 2.005856,28.7446 13.172259,29.8436 24.212595,32.0389 5.96129,-4.6145 9.06695,-5.9092 12.02968,-6.1204 l -0.0234,0 c 2.96273,0.2112 6.04496,2.3239 12.00625,6.9383 11.04033,-2.1952 22.20673,-3.2942 24.21259,-32.0389 1.59962,-12.0034 -5.6012,-27.8172 7.00364,-22.8558 -3.07886,-24.9966 -29.45103,-4.25 -30.81602,9.5913 0.39507,-12.1907 -12.40646,-27.1412 -12.40646,-27.1412 z"
           id="path4231"
           inkscape:connector-curvature="0"
           sodipodi:nodetypes="ccccccccccccc" />
      </g>
    </g>
    <g
       transform="matrix(4.7842718,0,0,4.9432501,154.44091,-994.46568)"
       id="g4110">
      <g
         id="g3999"
         style="fill:#f0a513;stroke-width:0.80000001;stroke-miterlimit:4;stroke-dasharray:none"
         transform="translate(-18.168011,-258.18143)">
        <rect
           transform="matrix(0.80000003,0,0,0.80000003,-3.3072544e-5,0)"
           y="557.0564"
           x="68.479759"
           height="6.4094996"
           width="22.938984"
           id="rect3991"
           style="fill:#f0a513;stroke:#000000;stroke-width:1;stroke-miterlimit:4;stroke-opacity:1;stroke-dasharray:none" />
        <rect
           rx="3.0999999"
           ry="3.8"
           style="fill:#f0a513;stroke:#000000;stroke-width:0.80000001;stroke-miterlimit:4;stroke-opacity:1;stroke-dasharray:none"
           id="rect3993"
           width="24.275099"
           height="6.1954966"
           x="51.797966"
           y="450.77274" />
        <rect
           ry="3.7"
           rx="2"
           y="456.96823"
           x="52.421013"
           height="3.601258"
           width="23.029009"
           id="rect3997"
           style="fill:#f0a513;stroke:#000000;stroke-width:0.80000001;stroke-miterlimit:4;stroke-opacity:1;stroke-dasharray:none" />
      </g>
      <path
         style="fill:#d40000;stroke:#000000;stroke-width:0.80000001;stroke-miterlimit:4;stroke-opacity:1;stroke-dasharray:none"
         d="m 61.49588,158.75557 c -2.102302,3.10221 -5.69476,3.96918 -9.191991,4.979 -4.683589,3.18857 -2.015298,2.9116 -6.127995,8.42599 -5.460739,2.61745 -2.623689,-2.60805 -11.872988,3.447 -6.575574,3.95565 -2.410155,12.65576 1.014064,11.82937 0.720343,1.48481 2.58477,1.06283 4.347931,0.80961 2.093107,2.42099 3.588782,0.36124 5.361995,0.383 0.646736,0.85805 1.903428,0.98416 3.446996,0.766 4.055546,0.44305 5.45257,-0.34212 6.491807,-1.26697 1.766239,-1.18491 1.897635,-2.32264 2.34416,-4.43272 0.01362,-1.62954 0.373691,-2.56618 0.739024,-3.4923 1.428059,-1.95342 2.224231,-0.69806 3.829996,-2.681 1.376408,-2.41486 -0.828817,-5.50061 4.213,-8.04299 -3.830304,-0.0658 -7.572215,0.41365 -10.340993,6.894 -3.56835,0.42014 -3.394639,2.58224 -4.978996,3.06399 -2.364675,0.47402 -7.027898,-3.26253 -13.787987,1.532 1.743247,-4.51242 8.997741,-3.51358 14.553986,-4.213 5.447168,-2.6376 2.433428,-5.7574 4.595996,-6.89399 4.137143,-4.44447 5.883954,-6.39264 5.361995,-11.10699 z"
         id="path3985"
         inkscape:connector-curvature="0"
         sodipodi:nodetypes="ccccccccccccccccccc" />
      <path
         style="fill:#980101;stroke:#000000;stroke-width:0.80000001;stroke-miterlimit:4;stroke-opacity:1;stroke-dasharray:none"
         d="m 35.15295,187.46921 c 1.486922,-4.88584 3.893402,-3.79456 6.050621,-4.32346 -3.107057,2.13262 -2.707369,3.68079 -1.53867,5.10079"
         id="path3987"
         inkscape:connector-curvature="0"
         sodipodi:nodetypes="ccc" />
      <path
         style="fill:#980101;stroke:#000000;stroke-width:0.80000001;stroke-miterlimit:4;stroke-opacity:1;stroke-dasharray:none"
         d="m 44.983263,188.62942 c 3.308085,-2.6357 1.433617,-4.80026 1.077985,-7.10289 3.838125,2.53053 4.832402,0.7953 5.864594,-0.88307 1.629947,6.90791 -2.699533,3.44943 -3.440542,8.75332"
         id="path3989"
         inkscape:connector-curvature="0"
         sodipodi:nodetypes="cccc" />
    </g>
  </g>
  <g
     id="g4283"
     transform="translate(-211.01846,211.64243)">
    <g
       transform="matrix(1,0,0,0.9780109,166.4,2.4041063)"
       id="g4249">
      <g
         id="g4251">
        <path
           sodipodi:nodetypes="ccccc"
           inkscape:connector-curvature="0"
           id="path4253"
           d="M 479.67471,1.7372863 499.69624,789.14667 c 17.8675,1.6661 35.28761,1.5011 54.33159,0 L 575.92556,2.3964963 z"
           style="fill:#f0a513;stroke:#000000;stroke-width:3.47457266px;stroke-linecap:butt;stroke-linejoin:miter;stroke-opacity:1" />
        <path
           sodipodi:nodetypes="cccccc"
           inkscape:connector-curvature="0"
           id="path4255"
           d="m 534.33314,22.96448 c -0.0457,-4.87502 -12.21071,-17.25353 -13.5776,-0.44298 l 5.2915,792.93127 -3.69573,-0.018 L 515.977,23.66393 C 516.28724,7.1543 534.51165,5.71458 534.33301,22.95625 z"
           style="fill:#000000;stroke:none" />
        <path
           style="fill:#000000;stroke:none"
           d="M 504.78588,22.99228 C 504.64421,18.11746 492.23174,5.72823 491.19857,22.53646 l 21.03428,792.89421 -3.69615,0 L 486.44248,23.6958 C 486.42368,7.18734 504.6221,5.76467 504.7858,23.00524 z"
           id="path4257"
           inkscape:connector-curvature="0"
           sodipodi:nodetypes="cccccc" />
        <path
           sodipodi:nodetypes="cccccc"
           inkscape:connector-curvature="0"
           id="path4259"
           d="m 565.30358,23.49935 c 0.0479,-4.87664 -11.87355,-17.73902 -13.55933,-0.98365 l -9.80341,793.11257 -3.69335,-0.1437 8.69921,-791.99529 c 0.62294,-16.49671 18.86291,-17.21089 18.3563,0.023 z"
           style="fill:#000000;stroke:none" />
      </g>
      <g
         transform="matrix(0.99707962,0,0,0.96514741,409.96407,-617.49644)"
         id="g4261"
         style="fill:#f0a513;stroke:#000000;stroke-width:3.53930497;stroke-miterlimit:4;stroke-dasharray:none">
        <path
           inkscape:connector-curvature="0"
           id="path4263"
           d="m 116.88604,1464.9574 c -1.93542,23.4793 -11.97907,13.8346 -12.02512,25.5877 -0.34765,12.2975 4.77752,16.9602 12.02512,16.4383 7.24761,0.5214 12.37283,-4.1407 12.02516,-16.4383 -0.0428,-11.7532 -10.08974,-2.1084 -12.02516,-25.5877 z"
           style="fill:#f0a513;stroke:#000000;stroke-width:3.53930497;stroke-linecap:butt;stroke-linejoin:miter;stroke-miterlimit:4;stroke-opacity:1;stroke-dasharray:none" />
        <path
           sodipodi:nodetypes="ccccccccccccc"
           inkscape:connector-curvature="0"
           id="path4265"
           d="m 117.34675,1416.8856 c -0.0563,-0.033 -12.87769,14.0896 -12.48262,26.2803 -1.365,-13.8412 -27.737165,-34.5879 -30.816027,-9.5912 12.60484,-4.9615 5.40402,10.8523 7.003642,22.8558 2.005856,28.7446 13.172259,29.8436 24.212595,32.0389 5.96129,-4.6145 9.06695,-5.9092 12.02968,-6.1204 l -0.0234,0 c 2.96273,0.2112 6.04496,2.3239 12.00625,6.9383 11.04033,-2.1952 22.20673,-3.2942 24.21259,-32.0389 1.59962,-12.0034 -5.6012,-27.8172 7.00364,-22.8558 -3.07886,-24.9966 -29.45103,-4.25 -30.81602,9.5913 0.39507,-12.1907 -12.40646,-27.1412 -12.40646,-27.1412 z"
           style="fill:#f0a513;stroke:#000000;stroke-width:3.53930497;stroke-linecap:butt;stroke-linejoin:miter;stroke-miterlimit:4;stroke-opacity:1;stroke-dasharray:none" />
      </g>
    </g>
    <g
       transform="matrix(4.6711833,0,0,4.8737986,204.69099,-981.7532)"
       id="g4128">
      <g
         transform="translate(41.03199,-258.18143)"
         id="g4098"
         style="fill:#f0a513;stroke-width:0.80000001;stroke-miterlimit:4;stroke-dasharray:none">
        <rect
           transform="matrix(0.80000003,0,0,0.80000003,-3.3072544e-5,0)"
           y="557.0564"
           x="68.479759"
           height="6.4094996"
           width="22.938984"
           id="rect4100"
           style="fill:#f0a513;stroke:#000000;stroke-width:1;stroke-miterlimit:4;stroke-opacity:1;stroke-dasharray:none" />
        <rect
           rx="3.0999999"
           ry="3.8"
           style="fill:#f0a513;stroke:#000000;stroke-width:0.80000001;stroke-miterlimit:4;stroke-opacity:1;stroke-dasharray:none"
           id="rect4102"
           width="24.275099"
           height="6.1954966"
           x="51.797966"
           y="450.77274" />
        <rect
           ry="3.7"
           rx="2"
           y="456.96823"
           x="52.421013"
           height="3.601258"
           width="23.029009"
           id="rect4104"
           style="fill:#f0a513;stroke:#000000;stroke-width:0.80000001;stroke-miterlimit:4;stroke-opacity:1;stroke-dasharray:none" />
      </g>
      <rect
         style="fill:#980101;stroke:#000000;stroke-width:1;stroke-miterlimit:4;stroke-opacity:1;stroke-dasharray:none"
         id="rect4106"
         width="15.869371"
         height="18.756823"
         x="126.83935"
         y="215.5728"
         transform="matrix(0.80000003,0,0,0.80000003,0,-3.3060785e-6)" />
      <path
         style="fill:#d40000;stroke:#000000;stroke-width:1;stroke-miterlimit:4;stroke-opacity:1;stroke-dasharray:none"
         d="m 155.85048,199.12753 c -7.00313,0.29307 -15.57024,-3.011 -18.38495,6.91544 -1.68049,2.96844 -2.08007,6.75201 -8.43347,6.74678 -4.96069,-0.1839 -8.68251,2.65201 -10.99062,5.56279 -4.33077,6.87089 -2.49877,8.13926 -2.1927,10.79484 0.75646,5.14442 2.61379,4.23401 4.21674,4.72274 5.36269,5.22376 10.26878,1.96023 14.364,0.84665 4.01646,-4.79734 -1.40923,-7.6345 0.16867,-12.98755 -2.63172,0.90645 -5.35564,1.51327 -6.24077,8.09613 -1.59642,-4.95476 0.51825,-16.82454 13.15621,-10.79483 -9.30228,5.15314 2.63646,9.25526 -4.72274,16.86693 5.63619,0.34651 9.37502,-1.41515 10.96351,-5.56609 0.54654,-10.62596 4.52467,-5.32256 6.91544,-11.46951 1.66814,-2.58626 -0.36706,-5.17253 -1.68669,-7.75879 -1.37271,4.0583 -4.71322,5.82083 -8.77081,6.74677 3.04568,-3.1869 -2.59104,-14.73723 11.63818,-18.7223 z"
         id="path4096"
         inkscape:connector-curvature="0"
         transform="matrix(0.80000003,0,0,0.80000003,0,-3.3060785e-6)"
         sodipodi:nodetypes="cccccccccccccccc" />
      <path
         style="fill:#980101;fill-opacity:1;fill-rule:evenodd;stroke:#000000;stroke-width:4.76999998;stroke-miterlimit:4;stroke-opacity:1;stroke-dasharray:none"
         d="m 781.06912,-109.99035 c 12.06134,-7.64639 19.28686,-29.24467 37.79595,-14.14518 -22.97638,11.25692 -24.35554,29.927382 -17.60819,37.327953"
         id="path4339"
         inkscape:connector-curvature="0"
         transform="matrix(0.17126282,0,0,0.16414302,-41.079739,201.43491)"
         sodipodi:nodetypes="ccc" />
    </g>
  </g>
  <g
     id="g4301"
     transform="translate(-195.01846,211.64243)">
    <g
       transform="matrix(4.742404,0,0,5.027383,171.5413,-1013.0838)"
       id="g4119">
      <g
         style="fill:#f0a513;stroke-width:0.80000001;stroke-miterlimit:4;stroke-dasharray:none"
         id="g4018"
         transform="translate(12.23199,-258.18143)">
        <rect
           style="fill:#f0a513;stroke:#000000;stroke-width:1;stroke-miterlimit:4;stroke-opacity:1;stroke-dasharray:none"
           id="rect4020"
           width="22.938984"
           height="6.4094996"
           x="68.479759"
           y="557.0564"
           transform="matrix(0.80000003,0,0,0.80000003,-3.3072544e-5,0)" />
        <rect
           y="450.77274"
           x="51.797966"
           height="6.1954966"
           width="24.275099"
           id="rect4022"
           style="fill:#f0a513;stroke:#000000;stroke-width:0.80000001;stroke-miterlimit:4;stroke-opacity:1;stroke-dasharray:none"
           ry="3.8"
           rx="3.0999999" />
        <rect
           style="fill:#f0a513;stroke:#000000;stroke-width:0.80000001;stroke-miterlimit:4;stroke-opacity:1;stroke-dasharray:none"
           id="rect4024"
           width="23.029009"
           height="3.601258"
           x="52.421013"
           y="456.96823"
           rx="2"
           ry="3.7" />
      </g>
      <path
         style="fill:#d40000;stroke:#000000;stroke-width:0.80000001;stroke-miterlimit:4;stroke-opacity:1;stroke-dasharray:none"
         d="m 91.726876,170.01565 c -2.39994,9.14525 -14.715034,4.16269 -11.454412,16.88461 1.260456,1.08929 2.786118,0.65805 4.253074,0.56344 4.100625,-1.4239 3.794078,-4.22907 3.086138,-7.16004 9.85366,-3.60427 4.610995,-7.44349 4.115199,-10.288 z"
         id="path4004"
         inkscape:connector-curvature="0"
         sodipodi:nodetypes="cccccc" />
      <path
         style="fill:#d40000;stroke:#000000;stroke-width:0.80000001;stroke-miterlimit:4;stroke-opacity:1;stroke-dasharray:none"
         d="m 90.985339,161.41574 c -3.54253,2.76578 -7.83469,0.4849 -9.923033,4.96152 -2.711152,3.80112 -7.615961,3.17352 -10.847977,4.82773 -2.739872,1.44793 -5.128944,4.0457 -6.343704,7.61633 -1.838288,3.75432 0.262688,5.63749 2.211712,7.59283 1.137072,1.51828 2.527064,1.26613 3.911968,1.04955 2.097112,1.73739 4.427416,1.14288 6.774384,0.38166 1.765412,-2.87804 2.285327,-9.31413 -1.57096,-10.32454 -1.118121,-0.29297 -2.81056,0.32953 -5.29884,2.21436 1.916664,-6.01805 6.87716,-2.22919 11.831312,-4.67527 4.277258,-2.27478 0.494218,-6.97903 5.820248,-8.20558 4.14714,-1.21243 2.71796,-3.54012 3.43489,-5.43859 z"
         id="path4006"
         inkscape:connector-curvature="0"
         sodipodi:nodetypes="cccccccscccc" />
      <path
         style="fill:#980101;stroke:#000000;stroke-width:0.80000001;stroke-miterlimit:4;stroke-opacity:1;stroke-dasharray:none"
         d="m 65.939329,186.271 c 1.607592,-4.77734 4.693256,-4.9093 8.06236,-4.15046 -2.165368,1.38025 -4.82948,2.51114 -4.071296,5.35318"
         id="path4008"
         inkscape:connector-curvature="0"
         sodipodi:nodetypes="ccc" />
    </g>
    <g
       transform="matrix(1,0,0,0.9780109,4.8000003,2.4041063)"
       id="g4086">
      <g
         id="g4080">
        <path
           sodipodi:nodetypes="ccccc"
           inkscape:connector-curvature="0"
           id="path3890"
           d="M 479.67471,1.7372863 499.69624,789.14667 c 17.8675,1.6661 35.28761,1.5011 54.33159,0 L 575.92556,2.3964963 z"
           style="fill:#f0a513;stroke:#000000;stroke-width:3.47457266px;stroke-linecap:butt;stroke-linejoin:miter;stroke-opacity:1" />
        <path
           sodipodi:nodetypes="cccccc"
           inkscape:connector-curvature="0"
           id="path3916"
           d="m 534.33314,22.96448 c -0.0457,-4.87502 -12.21071,-17.25353 -13.5776,-0.44298 l 5.2915,792.93127 -3.69573,-0.018 L 515.977,23.66393 C 516.28724,7.1543 534.51165,5.71458 534.33301,22.95625 z"
           style="fill:#000000;stroke:none" />
        <path
           style="fill:#000000;stroke:none"
           d="M 504.78588,22.99228 C 504.64421,18.11746 492.23174,5.72823 491.19857,22.53646 l 21.03428,792.89421 -3.69615,0 L 486.44248,23.6958 C 486.42368,7.18734 504.6221,5.76467 504.7858,23.00524 z"
           id="path3918"
           inkscape:connector-curvature="0"
           sodipodi:nodetypes="cccccc" />
        <path
           sodipodi:nodetypes="cccccc"
           inkscape:connector-curvature="0"
           id="path4050"
           d="m 565.30358,23.49935 c 0.0479,-4.87664 -11.87355,-17.73902 -13.55933,-0.98365 l -9.80341,793.11257 -3.69335,-0.1437 8.69921,-791.99529 c 0.62294,-16.49671 18.86291,-17.21089 18.3563,0.023 z"
           style="fill:#000000;stroke:none" />
      </g>
      <g
         transform="matrix(0.99707962,0,0,0.96514741,409.96407,-617.49644)"
         id="g3193"
         style="fill:#f0a513;stroke:#000000;stroke-width:3.53930497;stroke-miterlimit:4;stroke-dasharray:none">
        <path
           inkscape:connector-curvature="0"
           id="path4244"
           d="m 116.88604,1464.9574 c -1.93542,23.4793 -11.97907,13.8346 -12.02512,25.5877 -0.34765,12.2975 4.77752,16.9602 12.02512,16.4383 7.24761,0.5214 12.37283,-4.1407 12.02516,-16.4383 -0.0428,-11.7532 -10.08974,-2.1084 -12.02516,-25.5877 z"
           style="fill:#f0a513;stroke:#000000;stroke-width:3.53930497;stroke-linecap:butt;stroke-linejoin:miter;stroke-miterlimit:4;stroke-opacity:1;stroke-dasharray:none" />
        <path
           sodipodi:nodetypes="ccccccccccccc"
           inkscape:connector-curvature="0"
           id="path4246"
           d="m 117.34675,1416.8856 c -0.0563,-0.033 -12.87769,14.0896 -12.48262,26.2803 -1.365,-13.8412 -27.737165,-34.5879 -30.816027,-9.5912 12.60484,-4.9615 5.40402,10.8523 7.003642,22.8558 2.005856,28.7446 13.172259,29.8436 24.212595,32.0389 5.96129,-4.6145 9.06695,-5.9092 12.02968,-6.1204 l -0.0234,0 c 2.96273,0.2112 6.04496,2.3239 12.00625,6.9383 11.04033,-2.1952 22.20673,-3.2942 24.21259,-32.0389 1.59962,-12.0034 -5.6012,-27.8172 7.00364,-22.8558 -3.07886,-24.9966 -29.45103,-4.25 -30.81602,9.5913 0.39507,-12.1907 -12.40646,-27.1412 -12.40646,-27.1412 z"
           style="fill:#f0a513;stroke:#000000;stroke-width:3.53930497;stroke-linecap:butt;stroke-linejoin:miter;stroke-miterlimit:4;stroke-opacity:1;stroke-dasharray:none" />
      </g>
    </g>
  </g>
  <path
     style="fill:#013397;stroke:#000000;stroke-width:5.64632559;stroke-miterlimit:4;stroke-opacity:1;stroke-dasharray:none"
     d="M 64.882372,257.85577 117.97266,729.49621 C 130.24315,835.9762 234.35887,831.9879 334.97382,841.95642 435.58881,831.9879 539.59664,835.9762 551.86712,729.49621 l 53.09033,-471.64044 -269.98363,0 -270.091448,0 z"
     id="path3863"
     inkscape:connector-curvature="0" />
  <path
     style="fill:#f0a513;fill-opacity:1;stroke:#000000;stroke-width:3.83461237;stroke-miterlimit:4;stroke-opacity:1;stroke-dasharray:none"
     d="m 64.882372,257.85572 14.89344,131.9516 434.485568,412.52515 c 19.98041,-15.53797 33.65233,-38.35783 37.62554,-72.83626 l 13.54969,-120.66711 -1.7917,-1.79526 -367.52103,-349.17812 -131.241508,0 z"
     id="path3895"
     inkscape:connector-curvature="0" />
  <g
     id="g4173"
     transform="matrix(4.4792326,0,0,5.129314,-4.5769177,-811.06037)">
    <path
       inkscape:connector-curvature="0"
       id="rect3093"
       d="m 15.506957,208.39358 3.325,25.725 25.975001,0 0,-25.725 -29.300001,0 z"
       style="fill:#013397;stroke:#000000;stroke-width:0.80000001;stroke-opacity:1" />
    <path
       inkscape:transform-center-y="-1.1196089"
       inkscape:transform-center-x="-0.071465181"
       transform="matrix(1.3703544,0,0,1.3709637,-29.19109,-638.04699)"
       d="m 48.595293,633.65661 -4.211083,-3.01871 -4.320447,2.86 1.569667,-4.93781 -4.055106,-3.22521 5.18119,-0.033 1.814253,-4.85328 1.632485,4.9174 5.176377,0.22571 -4.17226,3.07215 z"
       inkscape:randomized="0"
       inkscape:rounded="0"
       inkscape:flatsided="false"
       sodipodi:arg2="1.5893977"
       sodipodi:arg1="0.96107916"
       sodipodi:r2="2.9324777"
       sodipodi:r1="7.2586083"
       sodipodi:cy="627.70593"
       sodipodi:cx="44.438755"
       sodipodi:sides="5"
       id="path3873"
       style="fill:#f0a513;stroke:#000000;stroke-width:0.58366084;stroke-miterlimit:4;stroke-opacity:1;stroke-dasharray:none"
       sodipodi:type="star" />
  </g>
  <g
     id="g4146"
     transform="matrix(4.4792326,0,0,5.129314,-4.5769177,-811.06037)">
    <g
       transform="matrix(0.90981131,0,0,1,-6.8081434,-258.18143)"
       style="fill:#f0a513"
       id="g3931">
      <path
         inkscape:connector-curvature="0"
         style="fill:#f0a513;stroke:#000000;stroke-width:1;stroke-miterlimit:4;stroke-opacity:1;stroke-dasharray:none"
         d="m 157.28125,588.6875 -4.15625,7.6875 c -2.26316,4.47585 -2.1136,8.96165 -0.9375,13.4375 2.19811,5.99367 3.34471,11.23331 1.59375,14.40625 -0.75267,1.08912 -1.50678,2.0018 -1.71875,3.46875 -0.57295,3.56327 2.93075,6.58317 5.21875,6.40625 2.28799,0.17693 5.82295,-2.84297 5.25,-6.40625 -0.21198,-1.46695 -0.96608,-2.37962 -1.71875,-3.46875 -1.75096,-3.17293 -0.60435,-8.41257 1.59375,-14.40625 1.17611,-4.47585 1.29441,-8.96165 -0.96875,-13.4375 l -4.15625,-7.6875 z"
         transform="matrix(0.80000003,0,0,0.80000003,-3.3072544e-5,0)"
         id="path3902" />
      <path
         style="fill:#f0a513;stroke:#000000;stroke-width:0.76832688;stroke-miterlimit:4;stroke-opacity:1;stroke-dasharray:none"
         d="m 136.68137,499.80611 c 0.951,0.0929 3.80686,1.82196 1.69548,4.423 -1.62482,1.85687 -4.18891,1.36322 -5.97501,0.26495 -5.47806,-3.45661 -6.51584,-14.44178 1.98424,-19.38226 3.95361,-2.3513 6.30722,-1.52453 7.93337,-0.0827 3.83818,3.40312 2.90669,9.57304 -2.80936,10.43855 -0.33575,-4.14314 -2.19379,-5.60738 -4.01778,-5.51858 -4.29892,0.89451 -4.88751,6.87467 -3.81241,10.58212 0.60835,1.90462 4.92444,3.96465 5.00147,-0.72509 z"
         id="path3904"
         inkscape:connector-curvature="0"
         sodipodi:nodetypes="ccccscccc" />
      <path
         sodipodi:nodetypes="ccccsccccc"
         inkscape:connector-curvature="0"
         id="path3923"
         d="m 115.07557,499.80611 c -0.93275,0.0929 -3.73377,1.82196 -1.66293,4.423 1.59363,1.85687 4.10848,1.36322 5.86029,0.26495 5.37287,-3.45661 6.39073,-14.44178 -1.94614,-19.38226 -3.87771,-2.3513 -6.18612,-1.52453 -7.78105,-0.0827 -3.76447,3.40312 -2.85088,9.57304 2.75542,10.43855 0.37344,-4.69839 2.66694,-5.95173 4.65441,-5.40191 3.58237,1.45529 3.98689,7.08499 3.02543,10.46545 -0.59666,1.90462 -4.82988,3.96465 -4.90543,-0.72509 z"
         style="fill:#f0a513;stroke:#000000;stroke-width:0.7609148;stroke-miterlimit:4;stroke-opacity:1;stroke-dasharray:none" />
      <rect
         style="fill:#f0a513;stroke:#000000;stroke-width:0.68190336;stroke-miterlimit:4;stroke-opacity:1;stroke-dasharray:none"
         id="rect3926"
         width="14.015019"
         height="3.2466314"
         x="118.82296"
         y="497.36816"
         rx="1.7"
         ry="4.2139916" />
    </g>
    <g
       id="g3937"
       style="fill:#f0a513"
       transform="matrix(0.47401395,0,0,0.51344884,-2.2627604,32.590326)">
      <path
         id="path3939"
         transform="matrix(0.80000003,0,0,0.80000003,-3.3072544e-5,0)"
         d="m 157.28125,588.6875 -4.15625,7.6875 c -2.26316,4.47585 -2.1136,8.96165 -0.9375,13.4375 2.19811,5.99367 3.34471,11.23331 1.59375,14.40625 -0.75267,1.08912 -1.50678,2.0018 -1.71875,3.46875 -0.57295,3.56327 2.93075,6.58317 5.21875,6.40625 2.28799,0.17693 5.82295,-2.84297 5.25,-6.40625 -0.21198,-1.46695 -0.96608,-2.37962 -1.71875,-3.46875 -1.75096,-3.17293 -0.60435,-8.41257 1.59375,-14.40625 1.17611,-4.47585 1.29441,-8.96165 -0.96875,-13.4375 l -4.15625,-7.6875 z"
         style="fill:#f0a513;stroke:#000000;stroke-width:1;stroke-miterlimit:4;stroke-opacity:1;stroke-dasharray:none"
         inkscape:connector-curvature="0" />
      <path
         sodipodi:nodetypes="ccccscccc"
         inkscape:connector-curvature="0"
         id="path3941"
         d="m 136.68137,499.80611 c 0.951,0.0929 3.80686,1.82196 1.69548,4.423 -1.62482,1.85687 -4.18891,1.36322 -5.97501,0.26495 -5.47806,-3.45661 -6.51584,-14.44178 1.98424,-19.38226 3.95361,-2.3513 6.30722,-1.52453 7.93337,-0.0827 3.83818,3.40312 2.90669,9.57304 -2.80936,10.43855 -0.33575,-4.14314 -2.19379,-5.60738 -4.01778,-5.51858 -4.29892,0.89451 -4.88751,6.87467 -3.81241,10.58212 0.60835,1.90462 4.92444,3.96465 5.00147,-0.72509 z"
         style="fill:#f0a513;stroke:#000000;stroke-width:0.76832688;stroke-miterlimit:4;stroke-opacity:1;stroke-dasharray:none" />
      <path
         style="fill:#f0a513;stroke:#000000;stroke-width:0.7609148;stroke-miterlimit:4;stroke-opacity:1;stroke-dasharray:none"
         d="m 115.07557,499.80611 c -0.93275,0.0929 -3.73377,1.82196 -1.66293,4.423 1.59363,1.85687 4.10848,1.36322 5.86029,0.26495 5.37287,-3.45661 6.39073,-14.44178 -1.94614,-19.38226 -3.87771,-2.3513 -6.18612,-1.52453 -7.78105,-0.0827 -3.76447,3.40312 -2.85088,9.57304 2.75542,10.43855 0.37344,-4.69839 2.66694,-5.95173 4.65441,-5.40191 3.58237,1.45529 3.98689,7.08499 3.02543,10.46545 -0.59666,1.90462 -4.82988,3.96465 -4.90543,-0.72509 z"
         id="path3943"
         inkscape:connector-curvature="0"
         sodipodi:nodetypes="ccccsccccc" />
      <rect
         ry="4.2139916"
         rx="1.7"
         y="497.36816"
         x="118.82296"
         height="3.2466314"
         width="14.015019"
         id="rect3945"
         style="fill:#f0a513;stroke:#000000;stroke-width:0.68190336;stroke-miterlimit:4;stroke-opacity:1;stroke-dasharray:none" />
    </g>
    <g
       transform="matrix(0.47401395,0,0,0.51344884,-2.2627604,54.990326)"
       style="fill:#f0a513"
       id="g3947">
      <path
         inkscape:connector-curvature="0"
         style="fill:#f0a513;stroke:#000000;stroke-width:1;stroke-miterlimit:4;stroke-opacity:1;stroke-dasharray:none"
         d="m 157.28125,588.6875 -4.15625,7.6875 c -2.26316,4.47585 -2.1136,8.96165 -0.9375,13.4375 2.19811,5.99367 3.34471,11.23331 1.59375,14.40625 -0.75267,1.08912 -1.50678,2.0018 -1.71875,3.46875 -0.57295,3.56327 2.93075,6.58317 5.21875,6.40625 2.28799,0.17693 5.82295,-2.84297 5.25,-6.40625 -0.21198,-1.46695 -0.96608,-2.37962 -1.71875,-3.46875 -1.75096,-3.17293 -0.60435,-8.41257 1.59375,-14.40625 1.17611,-4.47585 1.29441,-8.96165 -0.96875,-13.4375 l -4.15625,-7.6875 z"
         transform="matrix(0.80000003,0,0,0.80000003,-3.3072544e-5,0)"
         id="path3949" />
      <path
         style="fill:#f0a513;stroke:#000000;stroke-width:0.76832688;stroke-miterlimit:4;stroke-opacity:1;stroke-dasharray:none"
         d="m 136.68137,499.80611 c 0.951,0.0929 3.80686,1.82196 1.69548,4.423 -1.62482,1.85687 -4.18891,1.36322 -5.97501,0.26495 -5.47806,-3.45661 -6.51584,-14.44178 1.98424,-19.38226 3.95361,-2.3513 6.30722,-1.52453 7.93337,-0.0827 3.83818,3.40312 2.90669,9.57304 -2.80936,10.43855 -0.33575,-4.14314 -2.19379,-5.60738 -4.01778,-5.51858 -4.29892,0.89451 -4.88751,6.87467 -3.81241,10.58212 0.60835,1.90462 4.92444,3.96465 5.00147,-0.72509 z"
         id="path3951"
         inkscape:connector-curvature="0"
         sodipodi:nodetypes="ccccscccc" />
      <path
         sodipodi:nodetypes="ccccsccccc"
         inkscape:connector-curvature="0"
         id="path3953"
         d="m 115.07557,499.80611 c -0.93275,0.0929 -3.73377,1.82196 -1.66293,4.423 1.59363,1.85687 4.10848,1.36322 5.86029,0.26495 5.37287,-3.45661 6.39073,-14.44178 -1.94614,-19.38226 -3.87771,-2.3513 -6.18612,-1.52453 -7.78105,-0.0827 -3.76447,3.40312 -2.85088,9.57304 2.75542,10.43855 0.37344,-4.69839 2.66694,-5.95173 4.65441,-5.40191 3.58237,1.45529 3.98689,7.08499 3.02543,10.46545 -0.59666,1.90462 -4.82988,3.96465 -4.90543,-0.72509 z"
         style="fill:#f0a513;stroke:#000000;stroke-width:0.7609148;stroke-miterlimit:4;stroke-opacity:1;stroke-dasharray:none" />
      <rect
         style="fill:#f0a513;stroke:#000000;stroke-width:0.68190336;stroke-miterlimit:4;stroke-opacity:1;stroke-dasharray:none"
         id="rect3955"
         width="14.015019"
         height="3.2466314"
         x="118.82296"
         y="497.36816"
         rx="1.7"
         ry="4.2139916" />
    </g>
    <g
       id="g3958"
       style="fill:#f0a513"
       transform="matrix(0.47401395,0,0,0.51344884,12.13724,43.790326)">
      <path
         id="path3960"
         transform="matrix(0.80000003,0,0,0.80000003,-3.3072544e-5,0)"
         d="m 157.28125,588.6875 -4.15625,7.6875 c -2.26316,4.47585 -2.1136,8.96165 -0.9375,13.4375 2.19811,5.99367 3.34471,11.23331 1.59375,14.40625 -0.75267,1.08912 -1.50678,2.0018 -1.71875,3.46875 -0.57295,3.56327 2.93075,6.58317 5.21875,6.40625 2.28799,0.17693 5.82295,-2.84297 5.25,-6.40625 -0.21198,-1.46695 -0.96608,-2.37962 -1.71875,-3.46875 -1.75096,-3.17293 -0.60435,-8.41257 1.59375,-14.40625 1.17611,-4.47585 1.29441,-8.96165 -0.96875,-13.4375 l -4.15625,-7.6875 z"
         style="fill:#f0a513;stroke:#000000;stroke-width:1;stroke-miterlimit:4;stroke-opacity:1;stroke-dasharray:none"
         inkscape:connector-curvature="0" />
      <path
         sodipodi:nodetypes="ccccscccc"
         inkscape:connector-curvature="0"
         id="path3962"
         d="m 136.68137,499.80611 c 0.951,0.0929 3.80686,1.82196 1.69548,4.423 -1.62482,1.85687 -4.18891,1.36322 -5.97501,0.26495 -5.47806,-3.45661 -6.51584,-14.44178 1.98424,-19.38226 3.95361,-2.3513 6.30722,-1.52453 7.93337,-0.0827 3.83818,3.40312 2.90669,9.57304 -2.80936,10.43855 -0.33575,-4.14314 -2.19379,-5.60738 -4.01778,-5.51858 -4.29892,0.89451 -4.88751,6.87467 -3.81241,10.58212 0.60835,1.90462 4.92444,3.96465 5.00147,-0.72509 z"
         style="fill:#f0a513;stroke:#000000;stroke-width:0.76832688;stroke-miterlimit:4;stroke-opacity:1;stroke-dasharray:none" />
      <path
         style="fill:#f0a513;stroke:#000000;stroke-width:0.7609148;stroke-miterlimit:4;stroke-opacity:1;stroke-dasharray:none"
         d="m 115.07557,499.80611 c -0.93275,0.0929 -3.73377,1.82196 -1.66293,4.423 1.59363,1.85687 4.10848,1.36322 5.86029,0.26495 5.37287,-3.45661 6.39073,-14.44178 -1.94614,-19.38226 -3.87771,-2.3513 -6.18612,-1.52453 -7.78105,-0.0827 -3.76447,3.40312 -2.85088,9.57304 2.75542,10.43855 0.37344,-4.69839 2.66694,-5.95173 4.65441,-5.40191 3.58237,1.45529 3.98689,7.08499 3.02543,10.46545 -0.59666,1.90462 -4.82988,3.96465 -4.90543,-0.72509 z"
         id="path3964"
         inkscape:connector-curvature="0"
         sodipodi:nodetypes="ccccsccccc" />
      <rect
         ry="4.2139916"
         rx="1.7"
         y="497.36816"
         x="118.82296"
         height="3.2466314"
         width="14.015019"
         id="rect3966"
         style="fill:#f0a513;stroke:#000000;stroke-width:0.68190336;stroke-miterlimit:4;stroke-opacity:1;stroke-dasharray:none" />
    </g>
    <g
       transform="matrix(0.47401395,0,0,0.51344884,-16.662761,43.790326)"
       style="fill:#f0a513"
       id="g3968">
      <path
         inkscape:connector-curvature="0"
         style="fill:#f0a513;stroke:#000000;stroke-width:1;stroke-miterlimit:4;stroke-opacity:1;stroke-dasharray:none"
         d="m 157.28125,588.6875 -4.15625,7.6875 c -2.26316,4.47585 -2.1136,8.96165 -0.9375,13.4375 2.19811,5.99367 3.34471,11.23331 1.59375,14.40625 -0.75267,1.08912 -1.50678,2.0018 -1.71875,3.46875 -0.57295,3.56327 2.93075,6.58317 5.21875,6.40625 2.28799,0.17693 5.82295,-2.84297 5.25,-6.40625 -0.21198,-1.46695 -0.96608,-2.37962 -1.71875,-3.46875 -1.75096,-3.17293 -0.60435,-8.41257 1.59375,-14.40625 1.17611,-4.47585 1.29441,-8.96165 -0.96875,-13.4375 l -4.15625,-7.6875 z"
         transform="matrix(0.80000003,0,0,0.80000003,-3.3072544e-5,0)"
         id="path3970" />
      <path
         style="fill:#f0a513;stroke:#000000;stroke-width:0.76832688;stroke-miterlimit:4;stroke-opacity:1;stroke-dasharray:none"
         d="m 136.68137,499.80611 c 0.951,0.0929 3.80686,1.82196 1.69548,4.423 -1.62482,1.85687 -4.18891,1.36322 -5.97501,0.26495 -5.47806,-3.45661 -6.51584,-14.44178 1.98424,-19.38226 3.95361,-2.3513 6.30722,-1.52453 7.93337,-0.0827 3.83818,3.40312 2.90669,9.57304 -2.80936,10.43855 -0.33575,-4.14314 -2.19379,-5.60738 -4.01778,-5.51858 -4.29892,0.89451 -4.88751,6.87467 -3.81241,10.58212 0.60835,1.90462 4.92444,3.96465 5.00147,-0.72509 z"
         id="path3972"
         inkscape:connector-curvature="0"
         sodipodi:nodetypes="ccccscccc" />
      <path
         sodipodi:nodetypes="ccccsccccc"
         inkscape:connector-curvature="0"
         id="path3974"
         d="m 115.07557,499.80611 c -0.93275,0.0929 -3.73377,1.82196 -1.66293,4.423 1.59363,1.85687 4.10848,1.36322 5.86029,0.26495 5.37287,-3.45661 6.39073,-14.44178 -1.94614,-19.38226 -3.87771,-2.3513 -6.18612,-1.52453 -7.78105,-0.0827 -3.76447,3.40312 -2.85088,9.57304 2.75542,10.43855 0.37344,-4.69839 2.66694,-5.95173 4.65441,-5.40191 3.58237,1.45529 3.98689,7.08499 3.02543,10.46545 -0.59666,1.90462 -4.82988,3.96465 -4.90543,-0.72509 z"
         style="fill:#f0a513;stroke:#000000;stroke-width:0.7609148;stroke-miterlimit:4;stroke-opacity:1;stroke-dasharray:none" />
      <rect
         style="fill:#f0a513;stroke:#000000;stroke-width:0.68190336;stroke-miterlimit:4;stroke-opacity:1;stroke-dasharray:none"
         id="rect3976"
         width="14.015019"
         height="3.2466314"
         x="118.82296"
         y="497.36816"
         rx="1.7"
         ry="4.2139916" />
    </g>
  </g>
  <path
     style="fill:#f0a513;fill-opacity:1;fill-rule:evenodd;stroke:#000000;stroke-width:4.15471029;stroke-miterlimit:4;stroke-opacity:1;stroke-dasharray:none"
     d="M 27.653102,711.18859 C 16.229,663.48099 60.591159,677.68472 78.233383,648.25673 c -4.236271,24.54996 -4.696573,41.85034 5.848712,79.46686 l -39.234187,18.63564 z"
     id="path4144"
     inkscape:connector-curvature="0"
     sodipodi:nodetypes="ccccc" />
  <path
     style="fill:#013397;stroke:#000000;stroke-width:4.15471029;stroke-miterlimit:4;stroke-opacity:1;stroke-dasharray:none"
     d="M 46.76253,785.93375 C 39.53754,762.33334 31.100632,741.3427 27.505351,709.92597 c 26.496097,18.89594 94.473029,12.8717 90.247579,47.21875 -4.82459,16.92053 -13.41133,50.88592 -36.472809,48.90875 C 69.653143,803.63418 57.991307,794.11366 46.76253,785.93375 z"
     id="path4142"
     inkscape:connector-curvature="0"
     sodipodi:nodetypes="ccccc" />
  <path
     style="fill:#f0a513;stroke:#000000;stroke-width:4.15471029;stroke-miterlimit:4;stroke-opacity:1;stroke-dasharray:none"
     d="M 2.1210566,819.32379 C 11.759334,754.50448 104.23368,817.14337 117.75293,757.14472 c -3.81848,40.04826 12.0882,56.74945 0,85.1242 -31.842694,21.7103 -62.370977,-12.52268 -91.503701,14.87975 l -17.6237566,0 z"
     id="path4140"
     inkscape:connector-curvature="0"
     sodipodi:nodetypes="cccccc" />
  <path
     sodipodi:nodetypes="ccccc"
     inkscape:connector-curvature="0"
     id="path4179"
     d="m 640.85279,711.18857 c 11.42413,-47.70759 -32.93804,-33.50388 -50.58027,-62.93186 4.23629,24.54998 4.6966,41.85034 -5.84872,79.46687 l 39.23419,18.63564 z"
     style="fill:#f0a513;fill-opacity:1;fill-rule:evenodd;stroke:#000000;stroke-width:4.15471029;stroke-miterlimit:4;stroke-opacity:1;stroke-dasharray:none" />
  <path
     sodipodi:nodetypes="ccccc"
     inkscape:connector-curvature="0"
     id="path4181"
     d="m 621.7434,785.93374 c 7.22496,-23.6004 15.66187,-44.59107 19.25715,-76.0078 -26.4961,18.89598 -94.473,12.87171 -90.24757,47.21877 4.8246,16.92054 13.41132,50.88593 36.47282,48.90876 11.62699,-2.41933 23.2888,-11.93982 34.5176,-20.11973 z"
     style="fill:#013397;stroke:#000000;stroke-width:4.15471029;stroke-miterlimit:4;stroke-opacity:1;stroke-dasharray:none" />
  <path
     sodipodi:nodetypes="cccccc"
     inkscape:connector-curvature="0"
     id="path4183"
     d="m 666.38488,819.32379 c -9.63829,-64.81934 -102.11266,-2.18042 -115.6319,-62.17908 3.8185,40.04825 -12.08818,56.74946 0,85.12416 31.8427,21.71034 62.37097,-12.52265 91.50372,14.87977 l 17.62374,0 z"
     style="fill:#f0a513;stroke:#000000;stroke-width:4.15471029;stroke-miterlimit:4;stroke-opacity:1;stroke-dasharray:none" />
  <path
     style="fill:#013397;stroke:#000000;stroke-width:4.15471029;stroke-miterlimit:4;stroke-opacity:1;stroke-dasharray:none"
     d="m 2.0773548,819.25853 15.9178192,92.03176 c 35.506979,60.67946 123.736066,33.97899 221.632136,22.50209 55.27323,-3.68625 106.60742,-6.56388 157.92462,-3.00802 109.99875,7.86366 213.79915,47.59972 253.05949,-19.49407 l 15.80078,-92.03176 c -34.51185,96.3536 -142.26215,47.11625 -272.53429,40.43009 -39.31269,0.48568 -76.94937,-1.71622 -113.6754,-0.25947 C 147.42977,864.94006 37.081724,916.98744 2.0773548,819.25876 z"
     id="path4138"
     inkscape:connector-curvature="0"
     sodipodi:nodetypes="ccccccccc" />
  <g
     id="g4422"
     transform="matrix(0.98493274,-0.03998701,0.03733564,1.0548775,-26.931311,-17.983108)">
    <path
       sodipodi:nodetypes="ccccccccccccccccccccccccccccscccccccccccccccccccscccscccccccccccccccccccccccccccccccccccccccccccccccccccccccccsccccsscccccccccccscccccccccccccccccccccccccccccccccc"
       inkscape:connector-curvature="0"
       id="path3081"
       d="m 256.29955,385.46876 c 4.65485,9.29086 7.15105,17.88476 5.03439,25.00261 -3.97894,-7.22762 -10.54118,-11.96021 -19.14022,-14.76328 0.87485,13.13958 6.21087,20.55882 11.48632,28.07358 L 235.181,409.47062 c 0.39318,9.32569 2.56242,15.18249 5.82281,18.87081 l -17.98635,0.37578 c 11.27499,2.5928 19.33618,8.27873 34.70859,6.94747 l 8.19557,9.52947 -22.07168,-4.38797 c 21.68351,22.62911 34.51253,22.03858 42.73376,36.60174 -10.63651,-2.6082 -20.66239,-5.58914 -37.89102,-4.14086 -3.52204,-13.85197 -14.12127,-19.22398 -27.94904,-20.67998 l 10.35017,16.49713 c -6.47248,-4.48192 -14.62161,-4.37102 -22.75049,-4.36669 4.47488,7.26798 10.36014,13.55375 18.18715,18.54966 l -18.85213,-0.72128 c 9.78456,12.8929 19.41956,10.28109 29.07531,8.40563 l -7.26579,4.01181 c 4.60634,1.12999 7.30101,4.71912 15.63957,1.06778 l -4.60535,5.87852 c 5.62584,2.73791 10.40237,0.56159 15.38264,-0.4323 l -3.88127,4.65706 c 7.24157,4.71888 12.69575,-6.04156 25.15787,-3.51732 l -5.33611,9.70765 19.61251,-5.68862 -1.75004,8.76388 13.79884,-4.16957 c 29.32483,35.06054 49.66272,32.93593 74.29289,50.88754 24.13025,17.58723 42.16682,40.34736 39.06503,49.41144 -31.40532,-33.16694 -23.84125,8.90204 -10.93111,11.94629 2.06135,3.36119 3.34657,7.00359 3.82224,10.91223 -9.90402,-5.8784 -18.45459,-12.2233 -27.52924,-18.38951 -2.05013,-3.64979 -5.67284,-6.75503 -7.28599,-10.56062 -1.44572,-3.57185 -2.09056,-7.4578 -3.82026,-10.93715 -2.36869,-0.16102 -4.18693,-2.38875 -5.32368,-3.38254 -1.1504,-1.00229 -1.8926,-1.87809 -2.67972,-2.57045 -0.4561,-0.39538 -1.30515,-0.88414 -1.76691,-1.11854 -1.57804,-0.78802 -3.16463,-0.9948 -4.37855,-1.07538 -1.33422,-0.0936 -2.74198,-0.0409 -3.47732,1.15305 2.80085,1.6494 5.38426,3.40873 6.29176,5.7166 -3.193,-1.15415 -5.27986,-0.56868 -7.88621,-0.8025 0.13285,1.938 -2.27033,4.06631 -0.71397,5.51075 0.84227,-0.41071 5.0457,0.30341 6.19875,3.101 -5.52599,-1.77918 -9.20553,-0.64092 -9.42196,5.89686 3.66651,1.89759 3.68387,-1.95963 8.78004,2.17766 1.79765,1.99498 1.51447,4.73704 4.53964,6.30459 1.30891,-0.97452 3.86398,-0.003 6.10574,0.48541 5.23722,7.09468 15.4917,12.95785 21.98052,23.5159 24.28478,39.5141 20.96837,4.9263 46.78399,-1.09586 2.44783,-0.75434 6.81905,5.4686 8.75532,6.58958 2.23148,19.24842 11.30782,30.28284 14.95809,35.82309 2.0109,3.08191 4.13247,5.40449 6.3295,7.45004 2.92163,2.72018 2.94464,2.22063 4.44122,2.8108 2.30135,0.91181 2.31803,0.71432 3.46918,0.52658 2.26779,-0.37506 4.15709,-1.22331 6.04307,-1.25002 0.69797,4.70917 2.57046,8.99006 3.01724,13.78246 -0.68343,-0.24436 -0.99586,0.0929 -0.82178,1.18862 -1.05138,1.1086 -2.48198,1.59479 -4.3065,1.48839 -0.69498,3.58602 -2.03104,6.16601 -5.94266,4.71889 -3.15162,-2.40075 -5.17693,-5.18402 -8.91819,-7.37997 -1.0038,0.62985 -1.00617,2.83873 -2.54157,2.63186 -2.35997,-0.94543 -3.34201,0.27178 -5.26717,0.008 -0.28593,2.85064 -2.20796,3.14825 -1.50342,7.55461 3.97682,2.1027 3.73698,-2.43748 8.77263,1.32439 -0.009,2.19197 -1.78261,2.3735 -2.48088,4.39221 -1.56889,4.58695 0.0919,9.93186 3.87479,14.35221 -0.016,-3.32377 0.46543,-5.90505 3.35594,-4.67374 -0.4842,6.86892 3.32054,12.27585 7.48484,17.52328 -0.84449,-5.78352 -1.69245,-11.31828 4.10567,-8.42613 -0.54759,-4.16402 0.26336,-6.2224 0.61356,-8.97962 1.95224,-0.12682 3.38106,-3.99323 6.09635,-0.34295 -1.03641,4.00129 -0.24549,6.85663 2.04521,11.49825 2.05473,2.47329 3.29959,-0.074 3.57971,2.29089 0.61633,2.69532 -0.91955,6.11357 1.11957,8.31488 -0.0124,-2.27686 3.41676,0.30124 3.45438,-1.17995 0.0424,-1.58665 1.22394,-1.77952 1.60926,-3.20756 0.46884,-1.71559 1.04149,-2.14189 -0.16506,-5.17937 1.55606,0.78528 1.99546,-0.21904 1.69142,-2.34834 -1.75327,-4.92461 -7.97066,-8.29531 -6.50936,-14.33595 4.3885,-11.64641 30.14687,-52.53558 0.19433,-54.18001 -3.8874,-0.34957 -9.79619,-2.58199 -11.53796,-5.65717 -0.2513,-0.44832 -1.4183,-0.68957 -1.742,-1.11656 -0.40396,-0.5456 -0.55334,-1.69072 -0.94711,-2.28224 -1.64365,-2.47726 -2.17557,-2.56078 -2.72685,-5.13224 -0.36413,-1.68464 0.13411,-3.5122 -0.17048,-6.05756 0.0444,-0.13729 -0.0353,-0.43807 -0.0252,-0.62898 l -0.52767,-0.61876 0.4098,0.20813 c -1.20886,-2.37111 -4.20972,-6.15837 -3.03362,-6.63629 4.67808,2.03345 7.84782,3.38256 11.38353,3.81414 23.32871,1.88527 21.99617,-16.77213 10.13284,-41.65299 -2.21797,-4.57363 -2.95579,-6.44725 -4.65987,-9.52425 -1.37448,-2.48501 -3.31017,-4.92479 -4.85517,-7.38299 -1.06846,-1.70539 -1.80495,-3.57925 -2.96814,-5.25174 -8.97339,-12.9509 -20.21856,-22.56631 -31.57618,-32.15351 -18.53431,-15.76906 -31.47284,-23.10326 -44.5309,-42.38736 -0.92949,-1.36291 -1.40961,-1.41549 -2.43478,-3.12779 -10.37739,2.56833 -19.99089,-65.78181 0.007,-30.36998 2.54803,6.01172 4.38321,14.98171 8.86165,21.97138 -0.0245,3.10578 2.96168,5.65341 4.31827,8.14283 0.37403,-6.37249 -2.71553,-14.1347 2.59193,2.413 -1.06801,2.61067 5.22542,7.9052 6.59581,9.77847 1.75279,2.39138 3.06721,3.7098 5.05444,5.19189 1.70726,1.27492 3.60491,1.80621 4.57093,3.0719 1.54023,0.25012 0.55654,-1.5201 0.88007,-2.23729 2.25365,3.14273 7.54686,3.66292 10.13122,3.16284 -7.85634,-6.64767 -13.91492,-17.50675 -12.54064,-21.43626 2.38481,2.02775 12.33572,6.22876 14.88055,12.19262 -0.69836,-6.66151 -10.06728,-25.2529 -19.9624,-28.39631 2.4832,0.56234 7.96086,1.62961 5.9879,0.0748 -4.49439,-3.54194 -7.23593,-8.11762 -11.0145,-9.40247 -1.36954,-0.37737 -5.38454,-4.08118 -6.41407,-5.12442 -0.80309,-0.81899 -2.64503,-2.22996 -3.18639,-3.13739 -0.71341,-1.19111 -0.75991,-0.46361 -1.27443,-1.00415 -7.45354,-3.39268 -8.36627,-19.41714 -19.29579,-16.90736 -10.57077,2.42739 -12.80618,32.92371 -4.39592,46.14677 16.0861,25.29143 55.57496,55.32936 68.09053,66.22943 28.91019,21.76757 54.07271,84.06278 20.00073,67.34686 -5.0894,-2.7933 -8.07036,-4.61901 -12.99007,-9.15826 -39.85816,-32.93565 -61.93192,-102.17979 -96.10532,-124.88405 18.05176,-33.457 3.36319,-49.78136 -1.16456,-56.64546 -5.24595,-3.82108 0.66218,-2.88042 2.92018,-2.97794 -1.61003,-4.08885 -9.9531,-8.0881 -12.62991,-4.54019 -7.28533,-7.53886 -13.53009,-2.32042 -18.82857,-5.43424 -9.11098,-5.74416 -7.13783,-5.17237 -10.66708,1.68494 1.49483,2.49937 5.28327,4.99108 3.71787,7.49321 -7.5065,-6.29592 -11.76287,-15.64686 -7.65032,-19.54275 -1.88104,-1.88274 -3.38545,-2.62733 -4.57771,-2.67118 -1.9871,-0.0731 -3.0777,1.78429 -3.53696,3.48065 -0.50276,1.86567 -0.0577,5.18133 0.79581,6.70916 0.24967,0.44749 -0.42207,1.0723 -0.24745,1.53522 1.06745,2.8213 4.09205,6.4875 4.56154,8.23741 3.42153,3.50654 9.42199,6.99152 11.17853,10.49389 -0.57924,0.51901 -1.20719,0.91015 -2.11686,0.75963 -1.00919,-0.99859 -1.73047,-3.02866 -2.60579,-2.23854 1.90852,1.74629 -0.20844,3.4679 0.0614,5.22129 -0.35284,2.00239 -3.02079,-0.7193 -3.25584,1.52176 1.86526,2.77257 5.1925,3.94707 8.8182,6.74505 4.60094,3.55006 9.94251,8.81918 14.0547,11.22412 0.1519,2.11992 -0.26281,3.04635 -1.03409,3.22821 3.56577,4.39453 6.44069,9.19329 8.52091,14.27015 -9.89591,-9.58926 -26.94718,-14.00994 -56.66463,-9.31993 l 27.51916,-9.87519 c -13.52721,-13.91223 -15.37928,-25.59809 -46.99332,-42.9593 15.83851,-6.1437 6.10253,-22.83922 6.0696,-34.07617 -2.68978,4.61391 2.64347,14.5472 -7.92679,15.7965 2.13592,-11.2381 -7.60541,-17.0664 -19.70694,-21.83042 z m 80.42694,55.84942 c 0.12331,0.0138 0.25914,0.0427 0.39478,0.0815 0.15503,0.0444 0.34168,0.1174 0.51146,0.19114 1.35835,0.58947 3.15301,2.08078 5.02181,3.70964 1.24586,1.08584 2.50822,2.21296 3.70775,3.20391 l -0.65203,3.78524 -10.46707,-9.03292 c 0.0802,-1.49608 0.62022,-2.03698 1.4833,-1.93855 z m -2.38079,7.23408 11.29177,9.70037 c -0.90059,4.29058 -5.9869,0.0669 -11.2533,-4.50598 1.03993,-1.74623 -1.07961,-3.44164 -0.0385,-5.19439 z"
       style="fill:#013397;fill-opacity:1;fill-rule:evenodd;stroke:#000000;stroke-width:2.17992258;stroke-miterlimit:4;stroke-dasharray:none" />
    <path
       inkscape:connector-curvature="0"
       id="path3852"
       d="m 345.34042,434.48666 5.58776,0.86948 3.07098,4.12939 -5.90236,-0.46221 z"
       style="fill:#000000;stroke:#000000;stroke-width:0.57822877px;stroke-linecap:butt;stroke-linejoin:miter;stroke-opacity:1" />
    <path
       sodipodi:nodetypes="cc"
       inkscape:connector-curvature="0"
       id="path3854"
       d="m 345.60925,458.38576 c -0.38903,-2.02117 -0.2636,-5.26719 0.51843,-10.0765"
       style="fill:#000000;stroke:#000000;stroke-width:2.17992258;stroke-linecap:butt;stroke-linejoin:miter;stroke-miterlimit:4;stroke-opacity:1;stroke-dasharray:none" />
    <path
       sodipodi:nodetypes="csssccccssssscccccccccc"
       inkscape:connector-curvature="0"
       id="path3856"
       d="m 368.09659,498.90846 c -2.55266,5.80781 1.00125,7.37858 -7.50566,18.00991 -3.21457,4.01733 -1.33249,-13.53829 -2.96497,-12.09057 -1.7962,1.59292 -4.67683,13.48647 -8.07927,16.64505 -6.64763,6.17118 -17.23035,6.82532 -22.00198,1.27446 5.64958,0.0631 9.84999,-3.50394 9.50087,-7.85239 -2.18468,3.61916 -17.2207,9.30415 -22.78196,7.45912 l 18.68273,-15.3049 c -3.39233,2.31099 -17.86482,8.9284 -26.3737,7.20078 -1.41543,-0.28738 21.38465,-12.37284 20.2423,-13.04023 -1.15334,-0.67381 -26.24938,8.50035 -27.74371,8.09755 -1.44756,-0.39019 10.25688,-7.82371 8.81751,-8.24698 -1.5306,-0.45011 -10.44562,1.86638 -11.93718,1.39417 -9.76563,-3.09168 -18.36548,-6.48803 -21.49315,-7.97572 5.72061,-0.26644 14.28604,-2.44906 10.72778,-3.44176 -5.65984,0.20485 -24.98431,-1.50203 -28.00862,-9.16778 38.87783,-7.10835 22.52232,6.41677 33.46107,-6.72042 l -9.99651,-27.47431 27.23527,14.82165 4.12002,-17.9852 c 2.79347,7.64402 6.08053,14.76249 13.39383,17.59425 6.54735,5.66548 12.93302,13.36472 20.09031,11.35798 1.82035,-2.17548 1.06337,-2.7201 0.63137,-3.47034"
       style="fill:#013397;stroke:#000000;stroke-width:2.17992258;stroke-linecap:butt;stroke-linejoin:miter;stroke-miterlimit:4;stroke-opacity:1;stroke-dasharray:none" />
    <path
       transform="matrix(0.80000005,0,0,0.80000005,-4.8295978e-6,0)"
       sodipodi:nodetypes="cccc"
       inkscape:connector-curvature="0"
       id="path4355"
       d="m 456.47513,637.58712 c 30.53744,16.94129 46.91753,66.24222 69.31928,101.77935 -24.47328,-33.09388 -48.94656,-81.94511 -73.41984,-95.33052 z"
       style="fill:#000000;fill-opacity:1;fill-rule:evenodd;stroke:#000000;stroke-width:1;stroke-miterlimit:4;stroke-opacity:1;stroke-dasharray:none" />
    <path
       sodipodi:nodetypes="ccc"
       transform="matrix(0.80000005,0,0,0.80000005,-4.8295978e-6,0)"
       inkscape:connector-curvature="0"
       id="path4357"
       d="m 609.66646,893.70044 c 18.52206,-46.96286 -49.59264,-65.43177 -43.39614,-106.86195 0.98838,34.63934 75.23727,68.90641 43.39614,106.86195 z"
       style="fill:#000000;fill-opacity:1;fill-rule:evenodd;stroke:#000000;stroke-width:1;stroke-miterlimit:4;stroke-opacity:1;stroke-dasharray:none" />
  </g>
  <g
     style="font-size:44.80000305px;font-style:normal;font-variant:normal;font-weight:normal;font-stretch:normal;line-height:125%;letter-spacing:0px;word-spacing:0px;fill:#f0a513;fill-opacity:1;stroke:none;font-family:Tibetan Machine Uni;-inkscape-font-specification:Tibetan Machine Uni"
     id="text4359"
     transform="matrix(1.0535994,0,0,1.3085135,-17.895,-311.60998)">
    <path
       d="m 64.830724,942.35811 c 0.0125,0.49504 0.03514,0.90478 0.06791,1.22923 0.05961,0.31236 0.151168,0.57 0.274681,0.77292 0.142947,0.21031 0.333623,0.38302 0.57203,0.51816 0.238363,0.13512 0.542573,0.27296 0.91263,0.41353 l 0.438199,0.16646 -0.532667,1.40224 -9.494309,-3.6066 0.532667,-1.40223 1.314596,0.49937 c 0.564775,0.21454 1.038604,0.31654 1.421491,0.30598 0.402329,-0.003 0.655289,-0.14107 0.75888,-0.41373 0.02958,-0.0779 0.04709,-0.18268 0.05255,-0.31432 0.0249,-0.12426 0.03305,-0.32173 0.02447,-0.59243 l -0.04904,-4.79894 -8.092073,-3.07393 -2.094816,2.34655 c -0.367637,0.43978 -0.621735,0.84469 -0.762294,1.21472 -0.443894,1.16853 0.16187,2.06722 1.817294,2.69606 l 0.613478,0.23304 -0.532666,1.40224 -8.092073,-3.07393 0.532667,-1.40224 0.116853,0.0444 c 0.408985,0.15536 0.841524,0.21939 1.297618,0.19207 0.46349,-0.0468 0.863875,-0.16213 1.201158,-0.34601 0.161239,-0.0725 0.303005,-0.15232 0.425299,-0.23959 0.122288,-0.0873 0.251976,-0.19399 0.389067,-0.3202 0.156559,-0.11881 0.327918,-0.27658 0.514077,-0.4733 0.213025,-0.20879 0.471422,-0.47835 0.775194,-0.80867 l 13.820796,-15.17487 1.285383,0.48827 0.490952,22.11576 m -10.614472,-10.24986 6.865116,2.60785 -0.151291,-9.98581 -6.713825,7.37796"
       style="font-size:32.00000381px"
       id="path4374"
       inkscape:connector-curvature="0" />
    <path
       d="m 80.849391,924.65934 c 1.878908,0.25266 3.419748,0.59648 4.622526,1.03145 1.226163,0.41715 2.244308,0.97446 3.054437,1.67196 1.353337,1.19099 2.307104,2.69609 2.861303,4.51532 0.556926,1.79861 0.685483,3.81287 0.385671,6.04279 -0.330402,2.45706 -1.048567,4.51513 -2.154499,6.17421 -1.103201,1.63843 -2.544545,2.82149 -4.324034,3.54918 -1.820823,0.72213 -4.155902,0.89163 -7.005246,0.50851 l -10.839949,-1.45755 0.199892,-1.48662 0.588454,0.0791 c 0.640071,0.0861 1.157647,0.14515 1.552729,0.17725 0.397852,0.0115 0.696634,-0.0219 0.896347,-0.10019 0.220352,-0.0755 0.373994,-0.20196 0.460928,-0.37946 0.0897,-0.19815 0.158152,-0.47272 0.205353,-0.82373 l 2.3404,-17.40587 c 0.04441,-0.33034 0.04815,-0.59259 0.0112,-0.78677 -0.03419,-0.21478 -0.147574,-0.38769 -0.34016,-0.51871 -0.169177,-0.14885 -0.448525,-0.25998 -0.838045,-0.3334 -0.386756,-0.094 -0.900168,-0.18408 -1.540236,-0.27016 l -0.588454,-0.0791 0.199892,-1.48662 10.251495,1.37842 m -2.050237,22.04844 c 1.30078,0.1749 2.440732,0.13899 3.419858,-0.10773 0.981871,-0.26737 1.817405,-0.77514 2.506604,-1.5233 0.70981,-0.74539 1.284998,-1.74011 1.725564,-2.98417 0.443303,-1.26469 0.78712,-2.80553 1.031453,-4.62252 0.241515,-1.79633 0.293491,-3.35539 0.155928,-4.67719 -0.114181,-1.33965 -0.435772,-2.46546 -0.964773,-3.37744 -0.529042,-0.91195 -1.262718,-1.63071 -2.201031,-2.1563 -0.938349,-0.52554 -2.099206,-0.88133 -3.482574,-1.06736 l -1.641478,-0.22071 c -0.412963,-0.0555 -0.746099,-0.0793 -0.99941,-0.0713 -0.253335,0.008 -0.451655,0.0759 -0.594963,0.20378 -0.140554,0.10725 -0.24813,0.28197 -0.32273,0.52417 -0.07184,0.22159 -0.134136,0.52853 -0.186874,0.92081 l -2.261276,16.81741 c -0.05276,0.3923 -0.07514,0.71511 -0.06715,0.96843 0.01075,0.23268 0.06974,0.41929 0.176976,0.55983 0.107218,0.14055 0.281941,0.24812 0.524168,0.32273 0.242208,0.0746 0.569792,0.13968 0.982752,0.19521 l 2.198961,0.29567"
       style="font-size:32.00000381px"
       id="path4376"
       inkscape:connector-curvature="0" />
    <path
       d="m 127.69321,933.22177 -1.37221,0.0874 c -0.28302,-0.83785 -0.59257,-1.60097 -0.92865,-2.28935 -0.33612,-0.68834 -0.76446,-1.34995 -1.28502,-1.98483 -1.45248,-1.82801 -3.34302,-2.66787 -5.67162,-2.51958 -1.37223,0.0874 -2.46138,0.52212 -3.26747,1.30408 -0.80742,0.76122 -1.17471,1.71357 -1.10187,2.85707 0.0636,0.99799 0.45959,1.80779 1.18808,2.42939 0.72715,0.60085 1.84074,1.04137 3.34076,1.32157 l 3.55053,0.68194 c 1.31023,0.25057 2.32873,0.50927 3.05551,0.7761 0.74621,0.24474 1.36194,0.57085 1.84717,0.97832 1.39061,1.18484 2.15081,2.79603 2.2806,4.83356 0.0702,1.10194 -0.0534,2.11183 -0.37066,3.02968 -0.31865,0.89707 -0.80115,1.67933 -1.44751,2.34676 -0.6464,0.66744 -1.44693,1.209 -2.40159,1.62469 -0.93522,0.39358 -1.99537,0.62811 -3.18046,0.70359 -0.7277,0.0464 -1.39566,0.0471 -2.0039,0.002 -0.58746,-0.0461 -1.16782,-0.14481 -1.74109,-0.29618 -0.55383,-0.17348 -1.10055,-0.3996 -1.64019,-0.67836 -0.51886,-0.28009 -1.07353,-0.63095 -1.66402,-1.05261 l -1.32475,2.30763 -1.34103,0.0854 -0.59195,-9.29367 1.34103,-0.0854 c 0.33028,1.25238 0.70968,2.29286 1.13822,3.12146 0.448,0.80649 1.03955,1.57252 1.77467,2.29809 0.84435,0.80212 1.71573,1.37289 2.61412,1.7123 0.91918,0.33809 1.99211,0.46807 3.2188,0.38994 0.9148,-0.0583 1.65733,-0.1995 2.22757,-0.4237 0.58969,-0.24632 1.1396,-0.62579 1.64973,-1.13842 0.92022,-0.95626 1.33929,-2.07892 1.25721,-3.36798 -0.0834,-1.30983 -0.65905,-2.31695 -1.7268,-3.02134 -0.17429,-0.11415 -0.33684,-0.20817 -0.48766,-0.28208 -0.13139,-0.096 -0.31341,-0.1679 -0.54607,-0.21572 -0.21322,-0.0699 -0.5096,-0.13454 -0.88912,-0.19388 -0.36009,-0.0814 -0.84689,-0.18611 -1.46042,-0.31405 l -3.13715,-0.58302 c -1.22576,-0.23505 -2.26638,-0.51321 -3.12186,-0.8345 -0.85681,-0.34205 -1.561,-0.74602 -2.11256,-1.21191 -0.55289,-0.48666 -0.97526,-1.05471 -1.26713,-1.70416 -0.27241,-0.67152 -0.43708,-1.45431 -0.49402,-2.34834 -0.0649,-1.01875 0.0425,-1.95456 0.3222,-2.80741 0.29915,-0.87493 0.74206,-1.62335 1.32872,-2.24525 0.58533,-0.64265 1.30467,-1.14773 2.15804,-1.51524 0.87283,-0.38958 1.83942,-0.61815 2.89978,-0.68571 1.1643,-0.0741 2.26776,0.0435 3.31037,0.35279 1.0426,0.30938 1.97237,0.8138 2.78933,1.51326 l 1.18272,-2.07939 1.1851,-0.0755 0.91652,8.49016"
       style="font-size:32.00000381px"
       id="path4378"
       inkscape:connector-curvature="0" />
    <path
       d="m 150.72071,931.63041 -1.42869,0.15897 c -0.51325,-1.22155 -0.95397,-2.1682 -1.32216,-2.83996 -0.34983,-0.69472 -0.69962,-1.29514 -1.04938,-1.80125 -0.73868,-0.98685 -1.62684,-1.71602 -2.6645,-2.18751 -1.01698,-0.47376 -2.10521,-0.64614 -3.26471,-0.51715 -1.03529,0.11522 -1.98885,0.49383 -2.86069,1.13582 -0.85346,0.61903 -1.48716,1.42321 -1.90112,2.41253 -0.42777,1.05379 -0.70481,2.23752 -0.83114,3.5512 -0.10794,1.2907 -0.0582,2.86779 0.14912,4.73127 0.39165,3.51996 1.25134,6.0655 2.57907,7.63664 1.34611,1.54813 3.23045,2.18742 5.65301,1.91787 1.32514,-0.14744 2.47425,-0.55829 3.44734,-1.23253 0.97306,-0.67424 1.72638,-1.62798 2.25996,-2.86122 0.23687,-0.50848 0.41508,-1.07331 0.53464,-1.69452 0.11721,-0.64189 0.21027,-1.40687 0.27917,-2.29495 l 1.58402,0.10674 c -0.0663,2.79532 -0.81598,5.00636 -2.24902,6.63314 -1.43307,1.62679 -3.4644,2.58648 -6.09399,2.87907 -1.59434,0.17739 -3.09669,0.0511 -4.50705,-0.37892 -1.39197,-0.45301 -2.63328,-1.15337 -3.72394,-2.10107 -1.09066,-0.9477 -1.9973,-2.12549 -2.71992,-3.53339 -0.70192,-1.41018 -1.15079,-2.99527 -1.34662,-4.75525 -0.18661,-1.67714 -0.10863,-3.23699 0.23395,-4.67957 0.34027,-1.46325 0.95892,-2.87365 1.85597,-4.2312 0.95225,-1.42653 2.04604,-2.52296 3.28138,-3.28929 1.25373,-0.7893 2.67776,-1.27266 4.2721,-1.45008 0.53833,-0.0599 1.03872,-0.0841 1.50116,-0.0727 0.46243,0.0115 0.92027,0.0758 1.37353,0.19304 0.45323,0.11729 0.92374,0.29552 1.41153,0.53469 0.50617,0.2162 1.07332,0.50945 1.70147,0.87973 l 1.09365,-2.0397 1.24233,-0.13823 1.50953,9.32778"
       style="font-size:32.00000381px"
       id="path4380"
       inkscape:connector-curvature="0" />
    <path
       d="m 163.34296,920.55692 0.1998,1.48664 -0.61943,0.0833 c -0.66074,0.0888 -1.18448,0.18023 -1.57123,0.27423 -0.36889,0.0706 -0.64824,0.18173 -0.83806,0.33335 -0.19261,0.13101 -0.30601,0.3039 -0.34019,0.51868 -0.037,0.19418 -0.0333,0.45644 0.0111,0.78678 l 2.33515,17.37503 c 0.0472,0.35102 0.1156,0.6256 0.2053,0.82375 0.0869,0.17751 0.24055,0.304 0.46091,0.37949 0.22034,0.0755 0.51912,0.10891 0.89634,0.10025 0.39507,-0.0321 0.92297,-0.0925 1.58371,-0.18132 l 0.61943,-0.0833 0.20396,1.51761 -10.71615,1.44022 -0.20396,-1.51761 0.6504,-0.0874 c 0.64007,-0.086 1.15488,-0.16572 1.54441,-0.2391 0.38676,-0.094 0.66611,-0.20513 0.83807,-0.33335 0.1926,-0.13098 0.30738,-0.29355 0.34435,-0.48771 0.0342,-0.2148 0.0277,-0.49771 -0.0195,-0.84872 l -2.33515,-17.37504 c -0.0444,-0.33034 -0.11006,-0.58427 -0.19697,-0.7618 -0.0897,-0.19813 -0.24472,-0.33495 -0.46507,-0.41046 -0.20248,-0.0989 -0.50126,-0.1323 -0.89634,-0.10025 -0.39786,0.0114 -0.91682,0.0602 -1.5569,0.14618 l -0.6504,0.0874 -0.1998,-1.48663 10.71615,-1.44022"
       style="font-size:32.00000381px"
       id="path4382"
       inkscape:connector-curvature="0" />
    <path
       d="m 184.75682,917.47619 1.63029,8.22643 -1.39181,0.20104 c -0.46188,-1.44884 -0.95274,-2.58828 -1.47256,-3.41835 -0.52283,-0.85064 -1.08505,-1.46407 -1.68666,-1.84028 -0.29785,-0.16745 -0.62214,-0.29953 -0.97289,-0.39623 -0.33313,-0.12026 -0.72363,-0.20068 -1.17152,-0.24125 -0.42729,-0.0435 -0.92227,-0.0457 -1.48493,-0.007 -0.54207,0.0362 -1.16363,0.10495 -1.86468,0.20619 l -1.67017,0.24124 c -0.43301,0.0626 -0.78056,0.13382 -1.04265,0.21376 -0.2621,0.08 -0.45638,0.19224 -0.58284,0.33678 -0.12945,0.12397 -0.20872,0.30381 -0.23781,0.53954 -0.0115,0.21217 0.008,0.49351 0.0588,0.84402 l 1.0722,7.42296 0.77323,-0.11169 c 1.46396,-0.21144 2.51062,-0.68889 3.13998,-1.43235 0.66164,-0.81124 0.91606,-2.03729 0.76326,-3.67815 l 1.4846,-0.21444 1.52788,10.57773 -1.48459,0.21444 c -0.15764,-0.9455 -0.37093,-1.69353 -0.63989,-2.24407 -0.26898,-0.55053 -0.63944,-1.00221 -1.11138,-1.35504 -0.38055,-0.30286 -0.8257,-0.47011 -1.33545,-0.50174 -0.49212,-0.0552 -1.23304,-0.0113 -2.22276,0.13162 l -0.68044,0.0983 1.19729,8.28898 c 0.0506,0.35053 0.0967,0.59648 0.13815,0.73783 0.0385,0.12074 0.12703,0.22372 0.26564,0.30895 0.1858,0.12051 0.46141,0.207 0.82684,0.25946 0.38305,0.0289 0.8117,0.009 1.28596,-0.0594 l 2.19596,-0.3172 c 2.6805,-0.38717 4.44391,-1.29442 5.29024,-2.72174 0.32324,-0.53083 0.58282,-1.28401 0.77872,-2.25954 0.19587,-0.97551 0.32383,-2.057 0.38387,-3.24445 l 1.42274,-0.20551 0.62784,8.71855 -19.85643,2.86813 -0.21444,-1.48459 0.55673,-0.0804 c 0.65981,-0.0953 1.18412,-0.18156 1.57291,-0.25877 0.38581,-0.0978 0.66405,-0.21169 0.83474,-0.34159 0.1913,-0.13288 0.30447,-0.29658 0.33953,-0.49109 0.0321,-0.21512 0.0228,-0.49795 -0.0278,-0.84848 l -2.51073,-17.38211 c -0.0477,-0.32989 -0.11581,-0.58316 -0.20448,-0.75983 -0.0916,-0.19723 -0.248,-0.33252 -0.46909,-0.40585 -0.20344,-0.0969 -0.50254,-0.12736 -0.89728,-0.0914 -0.39772,0.0154 -0.9265,0.0707 -1.58632,0.16599 l -0.55672,0.0804 -0.21444,-1.48459 19.42343,-2.80558"
       style="font-size:32.00000381px"
       id="path4384"
       inkscape:connector-curvature="0" />
    <path
       d="m 195.0235,915.95037 15.39498,15.34648 -1.45834,-10.1773 c -0.15959,-1.1136 -0.34117,-2.01361 -0.54474,-2.70003 -0.20361,-0.68637 -0.46752,-1.20628 -0.79175,-1.55972 -0.32721,-0.37401 -0.74862,-0.59775 -1.26424,-0.67121 -0.49797,-0.097 -1.13143,-0.11145 -1.90036,-0.0434 l -0.2172,-1.51577 9.21834,-1.32092 0.2172,1.51576 c -0.77778,0.15357 -1.4023,0.34829 -1.87359,0.58417 -0.45365,0.21235 -0.78497,0.54395 -0.99394,0.99479 -0.21197,0.43027 -0.31926,1.00337 -0.32188,1.71929 -0.003,0.71597 0.0758,1.63076 0.2354,2.74436 l 2.41136,16.82812 -1.3611,0.19503 -17.26969,-17.41396 1.71987,12.0024 c 0.15957,1.11364 0.34115,2.01365 0.54474,2.70004 0.20358,0.6864 0.46897,1.21661 0.79617,1.59065 0.34486,0.35046 0.76627,0.5742 1.26424,0.67121 0.51563,0.0734 1.16823,0.0746 1.95781,0.004 l 0.2172,1.51577 -9.24928,1.32536 -0.2172,-1.51577 c 0.77775,-0.15354 1.39345,-0.33647 1.84708,-0.5488 0.47131,-0.2359 0.81293,-0.56897 1.02488,-0.99922 0.22961,-0.45383 0.34574,-1.03871 0.34839,-1.75466 0.003,-0.71594 -0.0758,-1.63073 -0.23541,-2.74436 l -1.97696,-13.79658 c -0.34782,-0.37106 -0.74861,-0.59775 -1.20237,-0.68007 -0.45376,-0.0823 -1.10341,-0.0629 -1.94894,0.0583 l -0.83522,0.11968 -0.2172,-1.51577 6.68175,-0.95745"
       style="font-size:32.00000381px"
       id="path4386"
       inkscape:connector-curvature="0" />
    <path
       d="m 235.03323,910.5058 1.6491,8.92522 -1.36382,0.17496 c -0.26396,-0.91131 -0.53398,-1.70633 -0.81007,-2.38506 -0.25812,-0.70201 -0.54959,-1.33675 -0.87442,-1.90421 -0.51987,-0.94149 -1.19522,-1.62149 -2.02605,-2.04003 -0.81284,-0.44181 -1.71519,-0.5991 -2.70705,-0.47187 -0.55794,0.0716 -0.93863,0.21495 -1.14206,0.43006 -0.20346,0.21516 -0.27867,0.52937 -0.22564,0.94263 l 2.2785,17.76069 c 0.0451,0.3513 0.10151,0.62761 0.16936,0.82894 0.0858,0.17803 0.22838,0.30677 0.42762,0.38623 0.21988,0.0768 0.51845,0.11202 0.89572,0.10563 0.39525,-0.0297 0.91318,-0.0856 1.55378,-0.16783 l 0.86788,-0.11134 0.19087,1.48781 -11.12755,1.42754 -0.19087,-1.4878 0.80589,-0.10339 c 0.66124,-0.0848 1.18685,-0.16276 1.57682,-0.2338 0.38731,-0.0917 0.66732,-0.20113 0.84005,-0.32831 0.19338,-0.12983 0.30914,-0.2917 0.34728,-0.48564 0.0355,-0.21459 0.0307,-0.49753 -0.0144,-0.84882 l -2.2785,-17.76069 c -0.053,-0.41326 -0.21545,-0.69698 -0.48727,-0.85117 -0.25117,-0.15679 -0.64538,-0.20074 -1.18264,-0.13183 -2.21105,0.28367 -3.5851,1.68868 -4.12216,4.21504 -0.10169,0.51716 -0.1941,1.10663 -0.27723,1.7684 -0.0831,0.66181 -0.12467,1.40228 -0.1246,2.22141 l -1.42582,0.18292 -0.65723,-9.05246 19.43448,-2.49323"
       style="font-size:32.00000381px"
       id="path4388"
       inkscape:connector-curvature="0" />
    <path
       d="m 249.68468,909.44373 0.10067,1.49662 -0.62359,0.0419 c -0.66518,0.0448 -1.19383,0.10121 -1.58597,0.16932 -0.37276,0.046 -0.65887,0.1383 -0.85834,0.27698 -0.20088,0.11794 -0.32551,0.28292 -0.37388,0.49496 -0.0498,0.19129 -0.0635,0.45322 -0.0411,0.78578 l 1.17656,17.49173 c 0.0238,0.35337 0.0738,0.63189 0.15017,0.83555 0.0749,0.18289 0.21983,0.3193 0.43469,0.40925 0.21485,0.0899 0.51075,0.14313 0.88771,0.15954 0.39633,-0.006 0.92708,-0.031 1.59226,-0.0758 l 0.62359,-0.0419 0.10276,1.5278 -10.78812,0.72565 -0.10277,-1.5278 0.65478,-0.044 c 0.64437,-0.0433 1.16333,-0.0887 1.55688,-0.13604 0.39214,-0.0681 0.67825,-0.16046 0.85834,-0.27698 0.20087,-0.11791 0.32619,-0.27251 0.37597,-0.46378 0.0484,-0.21206 0.0607,-0.49477 0.0369,-0.84814 l -1.17657,-17.49173 c -0.0224,-0.33256 -0.071,-0.59029 -0.14597,-0.77319 -0.0763,-0.20365 -0.22194,-0.35046 -0.43679,-0.44043 -0.19547,-0.11211 -0.49138,-0.16529 -0.88771,-0.15954 -0.39774,-0.015 -0.9188,-8.1e-4 -1.56317,0.0425 l -0.65478,0.044 -0.10066,-1.49662 10.78812,-0.72565"
       style="font-size:32.00000381px"
       id="path4390"
       inkscape:connector-curvature="0" />
    <path
       d="m 272.93795,928.07661 c 0.21504,0.44607 0.40423,0.81023 0.56757,1.09247 0.18283,0.26018 0.37227,0.45735 0.56832,0.59149 0.21681,0.13288 0.46165,0.21187 0.73454,0.23697 0.27285,0.0251 0.60683,0.0256 1.00195,0.002 l 0.46788,-0.0285 0.0913,1.49721 -10.1374,0.61838 -0.0913,-1.49722 1.40364,-0.0856 c 0.60303,-0.0368 1.07687,-0.13874 1.42151,-0.30587 0.36541,-0.16839 0.53924,-0.39815 0.5215,-0.68928 -0.005,-0.0832 -0.0322,-0.18588 -0.0814,-0.30811 -0.0284,-0.1235 -0.10222,-0.30685 -0.2214,-0.55004 l -2.01884,-4.35391 -8.64019,0.52705 -0.94406,3.00054 c -0.15418,0.55209 -0.21921,1.02567 -0.19511,1.42077 0.0761,1.24768 0.99793,1.81761 2.76549,1.70979 l 0.65503,-0.04 0.0913,1.49722 -8.64019,0.52705 -0.0913,-1.49722 0.12477,-0.008 c 0.43669,-0.0266 0.85727,-0.14621 1.26175,-0.35874 0.4032,-0.23331 0.7207,-0.50314 0.95248,-0.80949 0.11715,-0.13238 0.21351,-0.26349 0.28908,-0.39333 0.0756,-0.12984 0.14987,-0.28048 0.2229,-0.45191 0.0938,-0.1727 0.18511,-0.38699 0.27387,-0.64287 0.10827,-0.27794 0.23291,-0.62993 0.3739,-1.05598 l 6.35473,-19.51687 1.37244,-0.0837 9.54525,19.95585 m -13.89124,-4.97595 7.33013,-0.44713 -4.24576,-9.03951 -3.08437,9.48664"
       style="font-size:32.00000381px"
       id="path4392"
       inkscape:connector-curvature="0" />
    <path
       d="m 284.30766,907.38719 7.11743,17.11324 5.14944,-17.70734 8.14671,-0.39455 0.0741,1.52945 -0.59305,0.0287 c -0.66592,0.0323 -1.19554,0.0788 -1.58887,0.13952 -0.39438,0.04 -0.69259,0.12743 -0.8946,0.26233 -0.18227,0.11314 -0.29956,0.27526 -0.35189,0.48635 -0.0326,0.18931 -0.0408,0.45043 -0.0246,0.78335 l 0.84655,17.47952 c 0.0171,0.35375 0.0515,0.63367 0.10325,0.83974 0.0715,0.18426 0.20338,0.32387 0.39572,0.41884 0.2131,0.094 0.51836,0.15219 0.91577,0.17466 0.39635,0.002 0.92748,-0.0136 1.5934,-0.0459 l 0.59305,-0.0287 0.0741,1.52946 -10.67499,0.517 -0.0741,-1.52945 0.59305,-0.0287 c 0.66587,-0.0322 1.18559,-0.0678 1.55916,-0.10679 0.39333,-0.0608 0.69153,-0.14821 0.89461,-0.26234 0.20302,-0.11412 0.32082,-0.26583 0.35339,-0.45513 0.0523,-0.21111 0.0699,-0.49354 0.0528,-0.84729 l -0.89342,-18.44713 -6.23116,21.85827 -1.31097,0.0635 -8.8137,-21.12963 0.69992,14.45181 c 0.0544,1.12369 0.14037,2.03727 0.25788,2.74074 0.1373,0.68166 0.35129,1.22402 0.64196,1.6271 0.31047,0.38126 0.70904,0.64354 1.19572,0.78683 0.48565,0.12248 1.12486,0.18538 1.91762,0.1887 l 0.0741,1.52946 -9.30159,0.45049 -0.0741,-1.52946 c 0.78872,-0.0799 1.41886,-0.20429 1.89041,-0.37313 0.49135,-0.19066 0.86271,-0.49022 1.11409,-0.8987 0.27116,-0.43028 0.44214,-0.99129 0.51293,-1.68303 0.0698,-0.71254 0.0774,-1.63065 0.023,-2.75434 l -0.65306,-13.4842 c -0.0161,-0.33292 -0.0599,-0.59152 -0.13143,-0.7758 -0.0725,-0.20504 -0.21533,-0.35456 -0.42845,-0.44855 -0.19333,-0.11576 -0.48819,-0.17448 -0.88456,-0.17616 -0.39739,-0.0224 -0.92902,-0.0176 -1.59491,0.0147 l -0.59305,0.0287 -0.0741,-1.52946 8.39641,-0.40665"
       style="font-size:32.00000381px"
       id="path4394"
       inkscape:connector-curvature="0" />
    <path
       d="m 337.39892,905.58385 0.0249,1.49979 -0.62492,0.0104 c -0.66658,0.0111 -1.19742,0.0407 -1.59249,0.0889 -0.37462,0.0271 -0.66503,0.10481 -0.87126,0.23323 -0.20658,0.10763 -0.33939,0.2661 -0.39842,0.47542 -0.0594,0.18853 -0.0863,0.44943 -0.0808,0.7827 l 0.29073,17.52884 c 0.006,0.35412 0.0418,0.63481 0.10773,0.84208 0.0656,0.18644 0.20341,0.33001 0.41345,0.4307 0.21002,0.1007 0.50286,0.16877 0.8785,0.20421 0.39612,0.0143 0.92747,0.0159 1.59405,0.005 l 0.62492,-0.0104 0.0254,1.53104 -10.81101,0.17931 -0.0254,-1.53104 0.65616,-0.0109 c 0.64575,-0.0107 1.16633,-0.0298 1.56177,-0.0572 0.39508,-0.0482 0.6855,-0.12597 0.87125,-0.23323 0.20658,-0.1076 0.33955,-0.25566 0.39894,-0.44418 0.059,-0.20933 0.0856,-0.49106 0.0797,-0.84518 l -0.29073,-17.52885 c -0.006,-0.33326 -0.0411,-0.59313 -0.10669,-0.77958 -0.0659,-0.20725 -0.20394,-0.36123 -0.41397,-0.46195 -0.18955,-0.12185 -0.48239,-0.18992 -0.87851,-0.20421 -0.39647,-0.0351 -0.91758,-0.0473 -1.56332,-0.0366 l -0.65616,0.0109 -0.0249,-1.49979 10.81101,-0.17931"
       style="font-size:32.00000381px"
       id="path4396"
       inkscape:connector-curvature="0" />
    <path
       d="m 346.51584,905.51647 12.96584,17.44725 0.0571,-10.28109 c 0.006,-1.12497 -0.0408,-2.04191 -0.14098,-2.75083 -0.10026,-0.70888 -0.28469,-1.26199 -0.5533,-1.65934 -0.26854,-0.41815 -0.65239,-0.70153 -1.15155,-0.85016 -0.47825,-0.1693 -1.10266,-0.27694 -1.87324,-0.3229 l 0.009,-1.53123 9.31236,0.0517 -0.009,1.53122 c -0.79191,0.0373 -1.43831,0.13788 -1.9392,0.30174 -0.48,0.1432 -0.85655,0.42236 -1.12967,0.8375 -0.27305,0.39434 -0.46361,0.94537 -0.57169,1.6531 -0.10812,0.70776 -0.16529,1.62412 -0.17151,2.74909 l -0.0944,16.99974 -1.37497,-0.008 -14.51549,-19.76838 -0.0673,12.12481 c -0.006,1.12499 0.0407,2.04193 0.14098,2.75083 0.10023,0.7089 0.2846,1.27243 0.55313,1.69059 0.28945,0.39745 0.6733,0.68084 1.15154,0.85016 0.49918,0.14861 1.14448,0.24594 1.93591,0.292 l -0.009,1.53123 -9.3436,-0.0519 0.008,-1.53122 c 0.79188,-0.0373 1.42781,-0.12749 1.90778,-0.27066 0.50091,-0.16389 0.88789,-0.443 1.16092,-0.83732 0.29397,-0.41504 0.495,-0.97643 0.6031,-1.68418 0.1081,-0.70774 0.16527,-1.6241 0.17152,-2.74909 l 0.0774,-13.93729 c -0.28935,-0.41826 -0.65237,-0.70153 -1.08905,-0.84981 -0.43668,-0.14824 -1.0821,-0.22474 -1.93625,-0.2295 l -0.84374,-0.005 0.009,-1.53123 6.7499,0.0375"
       style="font-size:32.00000381px"
       id="path4398"
       inkscape:connector-curvature="0" />
    <path
       d="m 376.60553,906.03295 -0.058,1.49888 -1.31151,-0.0508 c -0.72863,-0.0282 -1.2619,0.0137 -1.59981,0.1257 -0.31711,0.11283 -0.48131,0.31497 -0.49259,0.60639 -0.004,0.10411 0.0111,0.25064 0.0455,0.43959 0.0552,0.1898 0.1208,0.37998 0.19682,0.57055 l 5.37427,15.46951 5.58223,-13.32525 c 0.11616,-0.30822 0.22233,-0.62727 0.31852,-0.95715 0.0961,-0.32984 0.14866,-0.60926 0.15755,-0.83828 0.0209,-0.54124 -0.19194,-0.96646 -0.63862,-1.27566 -0.44592,-0.32998 -1.09563,-0.5115 -1.94914,-0.54457 l -0.59331,-0.023 0.058,-1.49888 8.83712,0.34216 -0.058,1.49888 -0.31227,-0.0121 c -0.47883,-0.0185 -0.88679,0.0178 -1.22388,0.10898 -0.33633,0.0704 -0.64464,0.22525 -0.92492,0.46456 -0.27951,0.21854 -0.54182,0.53154 -0.78691,0.93901 -0.24514,0.40751 -0.5051,0.92909 -0.77988,1.56475 l -8.24521,19.10155 -1.28029,-0.0496 -7.47103,-21.08609 c -0.28244,-0.78232 -0.58577,-1.29444 -0.90999,-1.53636 -0.32422,-0.24187 -0.84023,-0.37651 -1.54803,-0.40394 l -0.65576,-0.0254 0.058,-1.49888 10.2111,0.39536"
       style="font-size:32.00000381px"
       id="path4400"
       inkscape:connector-curvature="0" />
    <path
       d="m 411.71492,908.16962 -0.20497,8.38391 -1.40212,-0.10766 c -0.13445,-1.51472 -0.3647,-2.73384 -0.69077,-3.65737 -0.32451,-0.94426 -0.73925,-1.66563 -1.24422,-2.16411 -0.25411,-0.22844 -0.54175,-0.42813 -0.86292,-0.59907 -0.29884,-0.19008 -0.66237,-0.35381 -1.09059,-0.49119 -0.40749,-0.13574 -0.89005,-0.24592 -1.4477,-0.33055 -0.5369,-0.083 -1.15847,-0.15162 -1.86471,-0.20587 l -1.68254,-0.12919 c -0.43623,-0.0335 -0.79095,-0.0398 -1.06417,-0.019 -0.27324,0.0208 -0.48734,0.088 -0.64231,0.20142 -0.15339,0.0927 -0.27001,0.25092 -0.34986,0.4746 -0.0575,0.20456 -0.0998,0.48339 -0.12691,0.83649 l -0.5742,7.47799 0.77896,0.0598 c 1.47481,0.11326 2.60046,-0.12417 3.37694,-0.7123 0.82279,-0.64723 1.33874,-1.78816 1.54784,-3.42279 l 1.4956,0.11483 -0.81823,10.65614 -1.4956,-0.11484 c 0.0526,-0.95711 0.008,-1.73366 -0.13454,-2.32964 -0.1423,-0.59597 -0.40522,-1.11763 -0.78875,-1.56498 -0.30525,-0.37864 -0.70315,-0.63903 -1.19369,-0.78118 -0.46821,-0.16131 -1.20083,-0.28025 -2.19789,-0.35682 l -0.68548,-0.0526 -0.64119,8.35042 c -0.0271,0.35313 -0.0359,0.60319 -0.0263,0.75019 0.0112,0.12623 0.0751,0.24606 0.19179,0.35949 0.15501,0.15817 0.40509,0.30274 0.75025,0.43371 0.36751,0.1118 0.79015,0.18604 1.26792,0.22273 l 2.21224,0.16986 c 2.70037,0.20735 4.61931,-0.29304 5.75682,-1.50116 0.43134,-0.44746 0.84908,-1.1258 1.25323,-2.03503 0.40411,-0.90922 0.76508,-1.93669 1.08292,-3.08239 l 1.43328,0.11005 -1.29067,8.64532 -20.00362,-1.53598 0.11484,-1.4956 0.56085,0.0431 c 0.66471,0.051 1.19519,0.0813 1.59146,0.0909 0.39786,-0.0112 0.69426,-0.0616 0.88918,-0.15112 0.2157,-0.0879 0.36188,-0.22295 0.43856,-0.40512 0.0783,-0.20293 0.13095,-0.48096 0.15807,-0.83409 l 1.34458,-17.51096 c 0.0255,-0.33233 0.0143,-0.59438 -0.0337,-0.78613 -0.0464,-0.21249 -0.16943,-0.37865 -0.36917,-0.49848 -0.17738,-0.13897 -0.46261,-0.234 -0.85568,-0.2851 -0.39149,-0.0718 -0.91958,-0.13327 -1.58429,-0.18433 l -0.56085,-0.0431 0.11484,-1.49559 19.5674,1.50248"
       style="font-size:32.00000381px"
       id="path4402"
       inkscape:connector-curvature="0" />
    <path
       d="m 432.67383,918.81421 -1.36676,-0.1503 c -0.13444,-0.87408 -0.3079,-1.67911 -0.52038,-2.4151 -0.21251,-0.73595 -0.52047,-1.46146 -0.92387,-2.17653 -1.11586,-2.0509 -2.83345,-3.20389 -5.15279,-3.45896 -1.36677,-0.15028 -2.51453,0.0903 -3.44327,0.7217 -0.92648,0.61074 -1.45234,1.48558 -1.57758,2.62453 -0.10932,0.99403 0.14128,1.85994 0.7518,2.59775 0.61278,0.71712 1.63383,1.3429 3.06315,1.87732 l 3.37997,1.2834 c 1.24747,0.47253 2.20618,0.90282 2.87613,1.29086 0.6929,0.36964 1.24324,0.79694 1.65102,1.2819 1.1657,1.4067 1.63698,3.12476 1.41383,5.15418 -0.12071,1.09756 -0.4164,2.07107 -0.88705,2.92054 -0.46842,0.82877 -1.07846,1.5162 -1.83014,2.06231 -0.75172,0.5461 -1.63357,0.94166 -2.64557,1.18668 -0.98904,0.22658 -2.07374,0.27497 -3.25412,0.14517 -0.7248,-0.0797 -1.38292,-0.19399 -1.97435,-0.34287 -0.57074,-0.14659 -1.12542,-0.34382 -1.66404,-0.59168 -0.51566,-0.2663 -1.01526,-0.58322 -1.49881,-0.95078 -0.46285,-0.36528 -0.94879,-0.80646 -1.45781,-1.32353 l -1.70248,2.04491 -1.3357,-0.14688 1.01793,-9.2567 1.3357,0.14688 c 0.10959,1.29055 0.30407,2.38084 0.58346,3.27087 0.30237,0.87162 0.75312,1.7281 1.35225,2.56946 0.69355,0.93559 1.45357,1.64793 2.28007,2.13703 0.84718,0.49139 1.88168,0.80426 3.10349,0.93861 0.91117,0.1002 1.66692,0.089 2.26727,-0.0336 0.6233,-0.14104 1.23036,-0.42011 1.82117,-0.8372 1.0712,-0.78343 1.67741,-1.81711 1.81862,-3.10104 0.14344,-1.30463 -0.25005,-2.39585 -1.18049,-3.27365 -0.15202,-0.14246 -0.29595,-0.26309 -0.43179,-0.36187 -0.11288,-0.1172 -0.27979,-0.21939 -0.50074,-0.30657 -0.19799,-0.1056 -0.4788,-0.22031 -0.84243,-0.34415 -0.34067,-0.14224 -0.80216,-0.32922 -1.38448,-0.56094 l -2.98981,-1.11474 c -1.16695,-0.4427 -2.14409,-0.89597 -2.93143,-1.35983 -0.78508,-0.48454 -1.40914,-1.00378 -1.8722,-1.55772 -0.46078,-0.57464 -0.77899,-1.20696 -0.95461,-1.89697 -0.15265,-0.70841 -0.18001,-1.50786 -0.0821,-2.39834 0.11158,-1.0147 0.37859,-1.91801 0.80102,-2.70993 0.4454,-0.81032 1.01062,-1.47125 1.69564,-1.98279 0.68729,-0.53221 1.48289,-0.90581 2.38682,-1.12082 0.92689,-0.23339 1.91841,-0.29203 2.97455,-0.17591 1.15966,0.12755 2.22636,0.43348 3.2001,0.91779 0.97371,0.48436 1.80269,1.14141 2.48694,1.97116 l 1.52325,-1.84455 1.18039,0.1298 -0.55978,8.52112"
       style="font-size:32.00000381px"
       id="path4404"
       inkscape:connector-curvature="0" />
    <path
       d="m 456.99121,913.56484 -0.68799,9.05017 -1.36322,-0.17959 c -0.0222,-0.94851 -0.0799,-1.78614 -0.17326,-2.51291 -0.07,-0.74468 -0.18949,-1.43284 -0.35841,-2.0645 -0.26185,-1.04312 -0.74086,-1.87321 -1.43704,-2.49029 -0.67285,-0.63497 -1.50497,-1.01777 -2.49639,-1.1484 -0.5577,-0.0735 -0.96238,-0.0322 -1.21406,0.12373 -0.25171,0.15598 -0.40477,0.44051 -0.45918,0.85359 l -2.33883,17.75285 c -0.0463,0.35113 -0.0624,0.63269 -0.0482,0.84468 0.0375,0.19406 0.14235,0.35497 0.31465,0.48274 0.19293,0.13048 0.47257,0.24087 0.83893,0.33116 0.38971,0.0724 0.90472,0.15072 1.54503,0.23507 l 0.86751,0.11429 -0.19593,1.48715 -11.12264,-1.46534 0.19592,-1.48715 0.80554,0.10612 c 0.66095,0.0871 1.18901,0.14614 1.58418,0.17719 0.39788,0.0104 0.69657,-0.0238 0.89608,-0.10259 0.22014,-0.0761 0.37345,-0.20296 0.45991,-0.38069 0.0892,-0.19838 0.15689,-0.47314 0.20316,-0.82428 l 2.33883,-17.75285 c 0.0544,-0.41307 -0.0301,-0.7289 -0.25341,-0.94746 -0.20273,-0.21581 -0.5726,-0.3591 -1.10961,-0.42987 -2.21008,-0.29114 -3.89773,0.7158 -5.06294,3.02083 -0.23056,0.47397 -0.47063,1.0202 -0.72022,1.63872 -0.2496,0.61855 -0.47909,1.32378 -0.68849,2.1157 l -1.42518,-0.18776 1.67942,-8.91956 19.42589,2.55925"
       style="font-size:32.00000381px"
       id="path4406"
       inkscape:connector-curvature="0" />
    <path
       d="m 470.35968,915.49771 -0.21201,1.48494 -0.61872,-0.0883 c -0.65999,-0.0942 -1.18885,-0.14867 -1.58659,-0.16339 -0.37419,-0.0324 -0.67324,-10e-4 -0.89713,0.0929 -0.22098,0.0737 -0.37712,0.20924 -0.46843,0.40663 -0.0884,0.1768 -0.15613,0.43019 -0.20323,0.76016 l -2.47782,17.35526 c -0.0501,0.35061 -0.0589,0.63346 -0.0265,0.84853 0.0354,0.19445 0.14881,0.35796 0.34034,0.49053 0.19151,0.13256 0.46994,0.24597 0.8353,0.34022 0.3889,0.0766 0.91335,0.16197 1.57333,0.2562 l 0.61873,0.0883 -0.21643,1.51588 -10.70396,-1.52821 0.21643,-1.51588 0.64966,0.0928 c 0.63935,0.0913 1.15642,0.15458 1.55123,0.1899 0.39775,0.0147 0.69679,-0.0163 0.89714,-0.0929 0.22096,-0.0737 0.37562,-0.1989 0.464,-0.37569 0.0913,-0.19741 0.162,-0.47142 0.21207,-0.82203 l 2.47782,-17.35526 c 0.0471,-0.32997 0.053,-0.59219 0.0176,-0.78666 -0.0324,-0.21505 -0.1444,-0.38888 -0.33592,-0.52146 -0.16795,-0.15023 -0.44639,-0.26364 -0.83529,-0.34023 -0.38598,-0.0972 -0.89864,-0.19141 -1.53799,-0.28271 l -0.64966,-0.0928 0.21201,-1.48495 10.70396,1.52822"
       style="font-size:32.00000381px"
       id="path4408"
       inkscape:connector-curvature="0" />
    <path
       d="m 491.8723,927.70753 -1.42247,-0.20738 c -0.26042,-2.69069 -0.93352,-4.78891 -2.01931,-6.29465 -1.06521,-1.50269 -2.51519,-2.38779 -4.34995,-2.65529 -2.28832,-0.33358 -4.14645,0.35347 -5.5744,2.06115 -1.42796,1.70771 -2.40792,4.38602 -2.93987,8.03494 -0.25246,1.7317 -0.34215,3.21343 -0.26907,4.44518 0.0937,1.23477 0.37333,2.34927 0.83894,3.3435 0.4394,0.88515 1.1075,1.64573 2.0043,2.28176 0.89679,0.63602 1.87088,1.03067 2.92227,1.18395 1.05138,0.15327 2.07698,0.0501 3.07682,-0.30938 0.99981,-0.35952 1.76448,-0.91123 2.29401,-1.65513 0.24263,-0.36464 0.46057,-0.84868 0.65382,-1.45212 0.21384,-0.60042 0.37186,-1.2511 0.47406,-1.95203 0.0631,-0.43292 0.0818,-0.77758 0.056,-1.03399 -0.002,-0.274 -0.0973,-0.48788 -0.28542,-0.64163 -0.16452,-0.17135 -0.43961,-0.3062 -0.82528,-0.40454 -0.3857,-0.0983 -0.91869,-0.19708 -1.59898,-0.29627 l -0.61847,-0.0902 0.2209,-1.51523 10.2974,1.5012 -0.22089,1.51523 -0.49477,-0.0721 c -0.86588,-0.12622 -1.50066,-0.17665 -1.90435,-0.1513 -0.40073,0.005 -0.68526,0.0791 -0.85359,0.22295 -0.0503,0.0558 -0.10052,0.11167 -0.15074,0.1675 -0.0297,0.0589 -0.0638,0.14861 -0.10242,0.26929 -0.0181,0.1237 -0.0451,0.30924 -0.0811,0.55662 -0.0331,0.22677 -0.0812,0.55662 -0.14426,0.98954 l -1.04138,7.14324 -1.39154,-0.20286 -0.77773,-3.11352 c -1.18407,0.90112 -2.33634,1.51211 -3.45684,1.83299 -1.11752,0.30027 -2.35658,0.35122 -3.71718,0.15286 -1.54617,-0.2254 -2.98389,-0.76133 -4.31318,-1.60778 -1.30869,-0.84345 -2.38545,-1.90573 -3.23031,-3.18684 -1.58706,-2.39988 -2.14016,-5.24905 -1.65929,-8.54753 0.31857,-2.18522 0.97065,-4.05866 1.95625,-5.62033 1.0062,-1.55863 2.40798,-2.87013 4.20533,-3.9345 1.15398,-0.69494 2.28221,-1.14101 3.3847,-1.33822 1.10547,-0.21778 2.29729,-0.23351 3.57546,-0.0472 0.57722,0.0842 1.10721,0.20355 1.58997,0.35812 0.48574,0.13399 0.94186,0.32681 1.36837,0.57845 0.45009,0.23407 0.88088,0.52846 1.29236,0.88317 0.41445,0.33414 0.84782,0.75523 1.30011,1.26327 l 1.55186,-1.76333 1.26785,0.18484 -0.88795,9.12359"
       style="font-size:32.00000381px"
       id="path4410"
       inkscape:connector-curvature="0" />
    <path
       d="m 514.21988,941.99074 c 0.12408,0.4794 0.23875,0.87342 0.34401,1.18206 0.12868,0.29081 0.2761,0.52108 0.44229,0.69083 0.18678,0.17255 0.41157,0.29769 0.67435,0.37544 0.26273,0.0777 0.59023,0.14325 0.98248,0.19654 l 0.46449,0.0631 -0.20192,1.48635 -10.06381,-1.36714 0.20191,-1.48635 1.39345,0.1893 c 0.59865,0.0813 1.08328,0.0736 1.45387,-0.0233 0.3912,-0.094 0.60644,-0.28555 0.64571,-0.57456 0.0112,-0.0826 0.005,-0.1886 -0.0199,-0.31807 -0.004,-0.12666 -0.0405,-0.32087 -0.11008,-0.58262 l -1.13253,-4.66364 -8.57747,-1.16522 -1.51018,2.75932 c -0.25871,0.51151 -0.4147,0.96337 -0.46798,1.3556 -0.16827,1.23862 0.62496,1.97712 2.37968,2.21549 l 0.65028,0.0883 -0.20192,1.48635 -8.57747,-1.16522 0.20192,-1.48635 0.12386,0.0168 c 0.43352,0.0589 0.86933,0.0235 1.30745,-0.10622 0.44092,-0.15034 0.80487,-0.3532 1.09186,-0.60856 0.14068,-0.10703 0.26073,-0.21687 0.36013,-0.32952 0.0994,-0.11264 0.2016,-0.24593 0.30662,-0.39987 0.12565,-0.15112 0.25691,-0.34354 0.39378,-0.57724 0.16032,-0.25154 0.3511,-0.57253 0.57234,-0.96298 l 10.03292,-17.90618 1.36249,0.18508 5.47733,21.43238 m -12.65664,-7.58525 7.27691,0.98854 -2.40459,-9.69315 -4.87232,8.70461"
       style="font-size:32.00000381px"
       id="path4412"
       inkscape:connector-curvature="0" />
    <path
       d="m 526.37713,923.30962 11.19893,18.63072 1.06142,-10.22632 c 0.11612,-1.11897 0.15895,-2.03611 0.12849,-2.75143 -0.0305,-0.71529 -0.16,-1.28378 -0.3885,-1.70547 -0.22639,-0.44239 -0.58071,-0.76192 -1.06297,-0.95862 -0.45942,-0.21522 -1.07032,-0.38335 -1.83272,-0.5044 l 0.15809,-1.52307 9.26274,0.96141 -0.15808,1.52307 c -0.79177,-0.0403 -1.44491,-0.003 -1.95941,0.11081 -0.49169,0.0956 -0.89372,0.33663 -1.2061,0.72309 -0.31028,0.36578 -0.55377,0.89556 -0.73048,1.58933 -0.17677,0.69381 -0.32321,1.6002 -0.43933,2.71918 l -1.75505,16.90916 -1.36765,-0.14195 -12.51435,-21.09217 -1.25177,12.06021 c -0.11615,1.119 -0.15898,2.03614 -0.12849,2.75144 0.0305,0.71531 0.1589,1.29416 0.38528,1.73656 0.24924,0.42383 0.60356,0.74336 1.06297,0.95861 0.48226,0.19667 1.11496,0.3566 1.89811,0.47977 l -0.15809,1.52307 -9.29382,-0.96464 0.15808,-1.52307 c 0.79174,0.0403 1.43344,0.0126 1.9251,-0.0829 0.51454,-0.11416 0.92693,-0.35412 1.23718,-0.71988 0.33312,-0.38432 0.58805,-0.92338 0.7648,-1.61718 0.17673,-0.69379 0.32317,-1.60018 0.43932,-2.71918 l 1.43888,-13.86303 c -0.24709,-0.44453 -0.58069,-0.76191 -1.00079,-0.95215 -0.42012,-0.1902 -1.05497,-0.32941 -1.90457,-0.41761 l -0.83924,-0.0871 0.15808,-1.52307 6.71394,0.69686"
       style="font-size:32.00000381px"
       id="path4414"
       inkscape:connector-curvature="0" />
    <path
       d="m 555.41089,925.74257 c 1.89446,0.0719 3.46111,0.26684 4.69996,0.58483 1.26043,0.29802 2.32719,0.75545 3.20028,1.3723 1.461,1.05616 2.55428,2.4632 3.27985,4.22112 0.72632,1.73713 1.04684,3.72987 0.96158,5.97824 -0.094,2.4774 -0.61213,4.59469 -1.5544,6.3519 -0.94152,1.73639 -2.26316,3.05182 -3.96494,3.94629 -1.74345,0.89288 -4.05163,1.28484 -6.92455,1.17585 l -10.92964,-0.4146 0.0569,-1.49892 0.59332,0.0225 c 0.64537,0.0245 1.16622,0.0338 1.56257,0.028 0.39712,-0.0266 0.69134,-0.0884 0.88266,-0.18543 0.21213,-0.0962 0.35297,-0.23679 0.42254,-0.42178 0.0703,-0.20582 0.11224,-0.48568 0.12567,-0.83959 l 0.66573,-17.54988 c 0.0126,-0.33308 -0.009,-0.59449 -0.0641,-0.78425 -0.0546,-0.21053 -0.18395,-0.3718 -0.38818,-0.48381 -0.18264,-0.13199 -0.47133,-0.21591 -0.86608,-0.25176 -0.39398,-0.0566 -0.91365,-0.0972 -1.55901,-0.12168 l -0.59332,-0.0225 0.0569,-1.49892 10.33631,0.39209 m 0.0669,22.14346 c 1.31154,0.0498 2.44284,-0.095 3.39389,-0.43416 0.95182,-0.36001 1.73498,-0.94533 2.3495,-1.75595 0.63531,-0.80983 1.11277,-1.85498 1.43239,-3.13546 0.32037,-1.30128 0.51531,-2.86793 0.58483,-4.69996 0.0687,-1.81118 -0.0286,-3.36807 -0.29191,-4.67067 -0.24173,-1.3226 -0.66947,-2.41251 -1.28323,-3.26975 -0.6138,-0.85719 -1.41282,-1.50253 -2.39708,-1.936 -0.9843,-0.43344 -2.17385,-0.67662 -3.56866,-0.72955 l -1.65506,-0.0628 c -0.41638,-0.0158 -0.75027,-0.008 -1.00166,0.0245 -0.2514,0.0322 -0.44232,0.11876 -0.57275,0.25973 -0.12966,0.12019 -0.22004,0.3044 -0.27115,0.55262 -0.0503,0.22744 -0.083,0.53893 -0.098,0.93445 l -0.64323,16.95656 c -0.015,0.39555 -0.006,0.71903 0.0257,0.97042 0.0329,0.23059 0.1095,0.4107 0.22968,0.54035 0.12016,0.12965 0.30437,0.22003 0.55262,0.27114 0.24823,0.0511 0.58053,0.0846 0.99691,0.10036 l 2.21716,0.0841"
       style="font-size:32.00000381px"
       id="path4416"
       inkscape:connector-curvature="0" />
    <path
       d="m 577.85331,925.67828 0.12716,1.52596 -0.62285,0.0519 c -0.66437,0.0554 -1.19205,0.12027 -1.58305,0.19464 -0.37198,0.0519 -0.65659,0.14881 -0.85381,0.29066 -0.17821,0.11939 -0.2898,0.28549 -0.33478,0.49827 -0.0467,0.19206 -0.0562,0.45417 -0.0285,0.78633 l 0.98873,11.86513 c 0.064,0.76818 0.12802,1.41092 0.19204,1.92821 0.0623,0.49655 0.15051,0.92822 0.2647,1.295 0.11245,0.34602 0.24221,0.64879 0.38927,0.90831 0.16782,0.25779 0.37889,0.53288 0.63322,0.82526 0.60034,0.68167 1.37457,1.19206 2.32268,1.53116 0.94636,0.31835 1.9801,0.43081 3.10123,0.33738 1.32871,-0.11072 2.46799,-0.48788 3.41784,-1.13149 0.97058,-0.64532 1.68339,-1.49913 2.13843,-2.56142 0.12282,-0.28201 0.21365,-0.5718 0.27249,-0.86939 0.0796,-0.2993 0.1358,-0.62802 0.16869,-0.98616 0.0311,-0.37889 0.0372,-0.80796 0.0182,-1.28721 -0.019,-0.47923 -0.0554,-1.04065 -0.10899,-1.68426 l -0.60206,-7.22496 c -0.0934,-1.1211 -0.22147,-2.03027 -0.38408,-2.72753 -0.16265,-0.69721 -0.39535,-1.23182 -0.6981,-1.60382 -0.30451,-0.39271 -0.71195,-0.64098 -1.22232,-0.74481 -0.49137,-0.12628 -1.12286,-0.17818 -1.89448,-0.15572 l -0.12715,-1.52596 9.24919,-0.77074 0.12716,1.52596 c -0.76474,0.10556 -1.38931,0.26213 -1.87372,0.46972 -0.46542,0.18515 -0.82615,0.49743 -1.08219,0.93685 -0.23704,0.41698 -0.37805,0.98273 -0.42301,1.69725 -0.045,0.71455 -0.0208,1.63238 0.0727,2.75347 l 0.61504,7.38067 c 0.12108,1.45331 0.11676,2.65574 -0.013,3.60729 -0.12979,0.95157 -0.42218,1.83306 -0.87718,2.64448 -0.69034,1.24914 -1.65574,2.20762 -2.89622,2.87544 -1.22148,0.64533 -2.75609,1.04498 -4.60384,1.19896 -1.86853,0.1557 -3.52165,0.0112 -4.95937,-0.43341 -1.43946,-0.4654 -2.56835,-1.218 -3.38669,-2.25781 -0.35122,-0.45155 -0.63322,-0.95069 -0.84602,-1.49741 -0.21281,-0.54671 -0.35554,-1.25606 -0.4282,-2.12804 l -1.15741,-13.88937 c -0.0277,-0.33216 -0.0804,-0.58908 -0.1583,-0.77076 -0.0588,-0.20413 -0.19637,-0.34946 -0.41264,-0.43599 -0.21799,-0.10725 -0.52509,-0.15483 -0.92128,-0.14274 -0.37717,-0.0104 -0.89793,0.0121 -1.56229,0.0675 l -0.52942,0.0441 -0.12716,-1.52596 10.61945,-0.88493"
       style="font-size:32.00000381px"
       id="path4418"
       inkscape:connector-curvature="0" />
    <path
       d="m 596.79139,923.28053 11.56381,14.48443 0.0627,-18.44078 7.72144,-2.6275 0.49328,1.44962 -0.56209,0.19128 c -0.63115,0.21479 -1.12737,0.40565 -1.48866,0.57258 -0.36804,0.14727 -0.63053,0.31361 -0.78747,0.49904 -0.14396,0.15904 -0.21196,0.34723 -0.204,0.56456 0.0209,0.19096 0.0851,0.4442 0.19251,0.75974 l 5.63754,16.56708 c 0.11407,0.33529 0.2244,0.59484 0.33098,0.77863 0.11955,0.15738 0.28486,0.25518 0.49595,0.29338 0.23076,0.0315 0.54022,0.003 0.9284,-0.0849 0.38142,-0.10778 0.88771,-0.26906 1.51886,-0.48383 l 0.5621,-0.19128 0.49328,1.44962 -10.11775,3.44293 -0.49329,-1.44962 0.5621,-0.19127 c 0.63111,-0.21476 1.12082,-0.3924 1.46914,-0.53294 0.36129,-0.16695 0.62378,-0.3333 0.78747,-0.49903 0.16365,-0.16572 0.235,-0.34405 0.21407,-0.53498 -0.008,-0.21736 -0.069,-0.49368 -0.18306,-0.82898 l -5.94962,-17.48418 0.0431,22.72904 -1.24253,0.42282 -14.30263,-17.87673 4.66104,13.69742 c 0.36241,1.06504 0.69716,1.91941 1.00424,2.56313 0.32008,0.6173 0.67544,1.07955 1.06607,1.38675 0.40362,0.28078 0.8591,0.42288 1.36642,0.42629 0.50059,-0.0163 1.13233,-0.13224 1.89523,-0.34783 l 0.49328,1.44962 -8.81605,2.99998 -0.49329,-1.44962 c 0.73604,-0.29448 1.30738,-0.58793 1.71403,-0.88035 0.41965,-0.31885 0.69392,-0.70927 0.8228,-1.17125 0.14189,-0.48841 0.1514,-1.07482 0.0285,-1.75923 -0.12957,-0.70412 -0.37556,-1.5887 -0.73798,-2.65373 l -4.34896,-12.78032 c -0.10738,-0.31554 -0.22085,-0.55201 -0.34043,-0.7094 -0.12627,-0.17707 -0.30481,-0.28137 -0.53559,-0.31289 -0.21777,-0.0579 -0.51738,-0.033 -0.89883,0.0748 -0.38815,0.0881 -0.89779,0.2395 -1.52892,0.45425 l -0.5621,0.19127 -0.49328,-1.44962 7.95811,-2.70803"
       style="font-size:32.00000381px"
       id="path4420"
       inkscape:connector-curvature="0" />
  </g>
</svg>
